<?xml version="1.0" encoding="utf-8"?>
<!-- Generator: Adobe Illustrator 24.1.2, SVG Export Plug-In . SVG Version: 6.00 Build 0)  -->
<svg version="1.1" id="Capa_1" xmlns="http://www.w3.org/2000/svg" xmlns:xlink="http://www.w3.org/1999/xlink" x="0px" y="0px"
	 viewBox="0 0 566.9 263.9" style="enable-background:new 0 0 566.9 263.9;" xml:space="preserve">
<style type="text/css">
	.st0{fill:#FFFFFF;}
	.st1{opacity:0.8;}
	.st2{opacity:0;fill:#FFFFFF;}
	.st3{opacity:3.225806e-02;fill:#FDFCFC;}
	.st4{opacity:6.451613e-02;fill:#FBF9F8;}
	.st5{opacity:9.677419e-02;fill:#F8F6F5;}
	.st6{opacity:0.129;fill:#F6F2F1;}
	.st7{opacity:0.1613;fill:#F4EFEE;}
	.st8{opacity:0.1935;fill:#F2ECEA;}
	.st9{opacity:0.2258;fill:#F0E9E7;}
	.st10{opacity:0.2581;fill:#EDE6E3;}
	.st11{opacity:0.2903;fill:#EBE3E0;}
	.st12{opacity:0.3226;fill:#E9E0DC;}
	.st13{opacity:0.3548;fill:#E7DDD9;}
	.st14{opacity:0.3871;fill:#E5D9D6;}
	.st15{opacity:0.4194;fill:#E2D6D2;}
	.st16{opacity:0.4516;fill:#E0D3CF;}
	.st17{opacity:0.4839;fill:#DED0CB;}
	.st18{opacity:0.5161;fill:#DCCDC8;}
	.st19{opacity:0.5484;fill:#DACAC4;}
	.st20{opacity:0.5806;fill:#D8C7C1;}
	.st21{opacity:0.6129;fill:#D5C4BD;}
	.st22{opacity:0.6452;fill:#D3C0BA;}
	.st23{opacity:0.6774;fill:#D1BDB7;}
	.st24{opacity:0.7097;fill:#CFBAB3;}
	.st25{opacity:0.7419;fill:#CDB7B0;}
	.st26{opacity:0.7742;fill:#CAB4AC;}
	.st27{opacity:0.8065;fill:#C8B1A9;}
	.st28{opacity:0.8387;fill:#C6AEA5;}
	.st29{opacity:0.871;fill:#C4ABA2;}
	.st30{opacity:0.9032;fill:#C2A79E;}
	.st31{opacity:0.9355;fill:#BFA49B;}
	.st32{opacity:0.9677;fill:#BDA197;}
	.st33{fill:#BB9E94;}
	.st34{clip-path:url(#XMLID_9_);fill:url(#SVGID_1_);}
	.st35{clip-path:url(#XMLID_9_);fill:#F39D16;}
	.st36{clip-path:url(#XMLID_11_);fill:url(#SVGID_2_);}
	.st37{clip-path:url(#XMLID_11_);fill:url(#SVGID_3_);}
	.st38{filter:url(#Adobe_OpacityMaskFilter);}
	.st39{mask:url(#SVGID_4_);}
	.st40{fill:url(#SVGID_5_);}
	.st41{clip-path:url(#XMLID_13_);fill:url(#SVGID_6_);}
	.st42{clip-path:url(#XMLID_13_);fill:#DD5B28;}
	.st43{clip-path:url(#XMLID_15_);fill:url(#SVGID_7_);}
	.st44{clip-path:url(#XMLID_15_);fill:#DD5B28;}
	.st45{clip-path:url(#XMLID_17_);fill:url(#SVGID_8_);}
	.st46{clip-path:url(#XMLID_17_);fill:url(#SVGID_9_);}
	.st47{clip-path:url(#XMLID_17_);fill:url(#SVGID_10_);}
	.st48{opacity:0.3;fill:url(#XMLID_18_);}
</style>
<g>
	<g>
		
			<image style="overflow:visible;opacity:0.75;" width="756" height="292" xlink:href="614BD464.png"  transform="matrix(0.24 0 0 0.24 84.3652 10.2873)">
		</image>
		<g>
			<g>
				<path class="st0" d="M112.6,53.3l-0.8,15.1l-7,0.2l0.5-8.7l-5.1,0.1l-2.8,8.8l-7,0.2L95,53.8l9.3-27.2l9-0.2L112.6,53.3z
					 M105.5,53.1l0.7-12.7l-4,12.8L105.5,53.1z"/>
				<path class="st0" d="M121,26.1l6.9-0.2l0.8,20.6l3.8-20.8l6.5-0.2l-7.8,42.2l-6.9,0.2l-0.7-20.1l-3.8,20.2l-6.7,0.2L121,26.1z"
					/>
				<path class="st0" d="M155,52.2l-0.8,15.1l-7,0.2l0.5-8.7l-5.1,0.1l-2.8,8.8l-7,0.2l4.8-15.1l9.3-27.2l9-0.2L155,52.2z M148,52
					l0.7-12.7l-4,12.8L148,52z"/>
				<path class="st0" d="M179.1,24.6l-1.3,6.7l-5.5,0.1l-6.6,35.4l-7,0.2l6.6-35.4l-5.5,0.1l1.3-6.7L179.1,24.6z"/>
				<path class="st0" d="M192.2,57.8c-1.1,6.1-4.7,9.2-10.7,9.4c-5,0.1-7.5-1.9-7.6-6c0-0.9,0.1-1.9,0.3-2.9l4.7-25.3
					c1.1-6.1,4.7-9.2,10.7-9.3c5-0.1,7.5,1.9,7.6,6c0,0.9-0.1,1.8-0.3,2.9L192.2,57.8z M189.9,32.8c0.1-0.3,0.1-0.6,0.1-0.8
					c0-1-0.6-1.5-1.7-1.5l0,0c-1.4,0-2.2,0.8-2.5,2.4l-4.7,25.3c-0.1,0.3-0.1,0.6-0.1,0.8c0,1,0.6,1.5,1.7,1.5
					c1.4,0,2.2-0.8,2.5-2.4L189.9,32.8z"/>
				<path class="st0" d="M209.5,51.6l11.6-28.1l6.9-0.2l-7.8,42.2l-6.7,0.2l3.6-19.4l-7.7,19.5l-4.9,0.1l-0.6-19.4L200.3,66
					l-6.8,0.2l7.8-42.2l6.9-0.2L209.5,51.6z"/>
				<path class="st0" d="M232.1,23.3l7-0.2l-7.8,42.2l-7,0.2L232.1,23.3z M242.9,18.3l-6.8,4.1l-6,0.2l7.8-6.3l5.4-0.1L242.9,18.3z"
					/>
				<path class="st0" d="M253.4,49.6l-0.8,15.1l-7,0.2l0.5-8.7l-5.1,0.1l-2.8,8.8l-7,0.2l4.8-15.1l9.3-27.2l9-0.2L253.4,49.6z
					 M246.4,49.4l0.7-12.7l-4,12.8L246.4,49.4z"/>
			</g>
		</g>
	</g>
	<g>
		
			<image style="overflow:visible;opacity:0.75;" width="408" height="773" xlink:href="614BD465.png"  transform="matrix(0.24 0 0 0.24 65.4052 64.5273)">
		</image>
		<g>
			<path class="st0" d="M151.7,70.4l-5,26.6l-22,0.6L98.8,238l-27.6,0.7l26-140.4l-22,0.6l5-26.6L151.7,70.4z"/>
		</g>
	</g>
	<g>
		
			<image style="overflow:visible;opacity:0.75;" width="453" height="775" xlink:href="614BD463.png"  transform="matrix(0.24 0 0 0.24 109.5652 63.0873)">
		</image>
		<g>
			<path class="st0" d="M203.7,175.6l-3.2,59.7l-27.9,0.7l1.8-34.6l-20.3,0.5l-11.1,34.8l-27.8,0.7l19-59.8L171,69.9l35.8-0.9
				L203.7,175.6z M175.8,174.9l2.8-50.4l-16,50.7L175.8,174.9z"/>
		</g>
	</g>
	<g>
		<g class="st1">
			<path class="st2" d="M292,56.4c-20.7,16.3-71.6,38.4-112.6,4.8C148.3,79.1,168,122,168,122c13.7,10.8,59.5,9.4,101.3-16.7
				c1.5-0.7,8.7-11.2,10-14.8C281.4,84.8,292,56.4,292,56.4z"/>
			<path class="st3" d="M291.5,56.4c-20.8,16.5-71.1,38.2-112.1,4.7c-31,17.9-11.4,59.8-11.4,59.8c13.7,10.8,59.6,10.3,101.2-15.7
				c1.5-0.7,8.6-10.9,9.9-14.5C281.2,85,291.5,56.4,291.5,56.4z"/>
			<path class="st4" d="M291,56.4c-21,16.7-70.6,38.1-111.6,4.5c-31,17.9-11.4,58.8-11.4,58.8c13.7,10.8,59.7,11.2,101.1-14.6
				c1.5-0.7,8.5-10.6,9.8-14.2C281,85.2,291,56.4,291,56.4z"/>
			<path class="st5" d="M290.5,56.4c-21.1,16.9-70,37.9-111,4.4c-30.9,17.9-11.5,57.9-11.5,57.9c13.7,10.8,59.8,12.1,101-13.6
				c1.5-0.7,8.4-10.4,9.7-14C280.8,85.4,290.5,56.4,290.5,56.4z"/>
			<path class="st6" d="M290,56.4c-21.2,17.1-69.5,37.7-110.5,4.3c-30.9,17.8-11.6,56.9-11.6,56.9c13.7,10.7,59.9,13,100.9-12.6
				c1.5-0.7,8.3-10.1,9.6-13.7C280.6,85.6,290,56.4,290,56.4z"/>
			<path class="st7" d="M289.5,56.4c-21.3,17.3-69,37.6-109.9,4.1c-30.9,17.8-11.6,56-11.6,56c13.7,10.7,60,13.9,100.8-11.5
				c1.5-0.7,8.2-9.8,9.5-13.4C280.4,85.8,289.5,56.4,289.5,56.4z"/>
			<path class="st8" d="M289.1,56.4c-21.5,17.5-68.5,37.4-109.4,4c-30.9,17.8-11.7,55-11.7,55c13.7,10.7,60.2,14.8,100.7-10.5
				c1.5-0.7,8.1-9.6,9.4-13.2C280.2,86,289.1,56.4,289.1,56.4z"/>
			<path class="st9" d="M288.6,56.4c-21.6,17.6-67.9,37.2-108.8,3.8c-30.9,17.8-11.7,54-11.7,54c13.7,10.7,60.3,15.8,100.5-9.5
				c1.5-0.7,8-9.3,9.3-12.9C280,86.2,288.6,56.4,288.6,56.4z"/>
			<path class="st10" d="M288.1,56.4c-21.7,17.8-67.4,37.1-108.3,3.7c-30.9,17.8-11.8,53.1-11.8,53.1c13.7,10.7,60.4,16.7,100.4-8.4
				c1.5-0.7,7.9-9,9.2-12.6C279.8,86.4,288.1,56.4,288.1,56.4z"/>
			<path class="st11" d="M287.6,56.4c-21.9,18-66.9,36.9-107.8,3.5C149,77.8,168,112.1,168,112.1c13.7,10.7,60.5,17.6,100.3-7.4
				c1.5-0.7,7.8-8.8,9.1-12.4C279.6,86.6,287.6,56.4,287.6,56.4z"/>
			<path class="st12" d="M287.1,56.5c-22,18.2-66.4,36.8-107.2,3.4C149,77.6,168,111,168,111c13.6,10.7,60.6,18.5,100.2-6.3
				c1.5-0.7,7.7-8.5,9-12.1C279.4,86.8,287.1,56.5,287.1,56.5z"/>
			<path class="st13" d="M286.6,56.5c-22.1,18.4-65.8,36.6-106.7,3.2c-30.8,17.8-11.9,50.2-11.9,50.2c13.6,10.7,60.7,19.4,100.1-5.3
				c1.5-0.7,7.6-8.3,8.9-11.8C279.2,87,286.6,56.5,286.6,56.5z"/>
			<path class="st14" d="M286.1,56.5c-22.2,18.6-65.3,36.4-106.1,3.1c-30.8,17.8-12,49.2-12,49.2c13.6,10.7,60.8,20.3,100-4.3
				c1.5-0.7,7.5-8,8.8-11.6C279,87.3,286.1,56.5,286.1,56.5z"/>
			<path class="st15" d="M285.7,56.5c-22.4,18.8-64.8,36.3-105.6,2.9c-30.8,17.8-12,48.2-12,48.2c13.6,10.7,60.9,21.2,99.9-3.2
				c1.5-0.7,7.4-7.7,8.7-11.3C278.8,87.5,285.7,56.5,285.7,56.5z"/>
			<path class="st16" d="M285.2,56.5c-22.5,19-64.3,36.1-105,2.8C149.3,77,168,106.6,168,106.6c13.6,10.7,61,22.2,99.8-2.2
				c1.5-0.7,7.3-7.5,8.6-11C278.6,87.7,285.2,56.5,285.2,56.5z"/>
			<path class="st17" d="M284.7,56.5c-22.6,19.2-63.7,36-104.5,2.6c-30.8,17.8-12.1,46.3-12.1,46.3c13.6,10.7,61.1,23.1,99.7-1.2
				c1.5-0.7,7.2-7.2,8.5-10.8C278.4,87.9,284.7,56.5,284.7,56.5z"/>
			<path class="st18" d="M284.2,56.5c-22.8,19.4-63.2,35.8-104,2.5c-30.8,17.8-12.2,45.4-12.2,45.4c13.6,10.7,61.2,24,99.6-0.1
				c1.5-0.7,7.1-6.9,8.4-10.5C278.2,88.1,284.2,56.5,284.2,56.5z"/>
			<path class="st19" d="M283.7,56.5c-22.9,19.6-62.7,35.6-103.4,2.3c-30.8,17.8-12.2,44.4-12.2,44.4c13.6,10.7,61.3,24.9,99.5,0.9
				c1.5-0.7,7-6.7,8.3-10.2C278,88.3,283.7,56.5,283.7,56.5z"/>
			<path class="st20" d="M283.2,56.5c-23,19.8-62.1,35.5-102.9,2.2c-30.8,17.7-12.3,43.4-12.3,43.4c13.6,10.7,61.4,25.8,99.4,2
				c1.5-0.7,6.9-6.4,8.2-10C277.8,88.5,283.2,56.5,283.2,56.5z"/>
			<path class="st21" d="M282.8,56.5c-23.1,19.9-61.6,35.3-102.3,2c-30.7,17.7-12.3,42.5-12.3,42.5c13.6,10.7,61.5,26.7,99.3,3
				c1.5-0.7,6.8-6.1,8.1-9.7C277.6,88.7,282.8,56.5,282.8,56.5z"/>
			<path class="st22" d="M282.3,56.5c-23.3,20.1-61.1,35.2-101.8,1.9c-30.7,17.7-12.4,41.5-12.4,41.5c13.6,10.7,61.6,27.6,99.2,4
				c1.5-0.7,6.7-5.9,8-9.4C277.4,88.9,282.3,56.5,282.3,56.5z"/>
			<path class="st23" d="M281.8,56.6c-23.4,20.3-60.6,35-101.2,1.8c-30.7,17.7-12.5,40.5-12.5,40.5c13.6,10.7,61.7,28.6,99.1,5.1
				c1.5-0.7,6.7-5.6,7.9-9.2C277.2,89.1,281.8,56.6,281.8,56.6z"/>
			<path class="st24" d="M281.3,56.6c-23.5,20.5-60,34.8-100.7,1.6c-30.7,17.7-12.5,39.6-12.5,39.6c13.6,10.7,61.8,29.5,99,6.1
				c1.5-0.7,6.6-5.4,7.8-8.9C277,89.3,281.3,56.6,281.3,56.6z"/>
			<path class="st25" d="M280.8,56.6c-23.7,20.7-59.5,34.7-100.2,1.5c-30.7,17.7-12.6,38.6-12.6,38.6c13.6,10.7,61.9,30.4,98.9,7.2
				c1.5-0.7,6.5-5.1,7.7-8.6C276.8,89.5,280.8,56.6,280.8,56.6z"/>
			<path class="st26" d="M280.3,56.6c-23.8,20.9-59,34.5-99.6,1.3c-30.7,17.7-12.6,37.6-12.6,37.6c13.6,10.7,62,31.3,98.8,8.2
				c1.5-0.7,6.4-4.8,7.6-8.4C276.6,89.7,280.3,56.6,280.3,56.6z"/>
			<path class="st27" d="M279.8,56.6c-23.9,21.1-58.5,34.4-99.1,1.2c-30.7,17.7-12.7,36.7-12.7,36.7c13.6,10.7,62.1,32.2,98.7,9.2
				c1.5-0.7,6.3-4.6,7.5-8.1C276.4,89.9,279.8,56.6,279.8,56.6z"/>
			<path class="st28" d="M279.4,56.6c-24.1,21.3-57.9,34.2-98.5,1c-30.7,17.7-12.7,35.7-12.7,35.7c13.6,10.7,62.2,33.1,98.6,10.3
				c1.5-0.7,6.2-4.3,7.4-7.9C276.2,90.1,279.4,56.6,279.4,56.6z"/>
			<path class="st29" d="M278.9,56.6c-24.2,21.5-57.4,34-98,0.9c-30.6,17.7-12.8,34.7-12.8,34.7c13.6,10.7,62.3,34,98.4,11.3
				c1.5-0.7,6.1-4,7.3-7.6C276,90.3,278.9,56.6,278.9,56.6z"/>
			<path class="st30" d="M278.4,56.6c-24.3,21.7-56.9,33.9-97.4,0.7c-30.6,17.7-12.8,33.8-12.8,33.8c13.5,10.6,62.4,35,98.3,12.3
				c1.5-0.7,6-3.8,7.2-7.3C275.8,90.5,278.4,56.6,278.4,56.6z"/>
			<path class="st31" d="M277.9,56.6c-24.4,21.9-56.4,33.7-96.9,0.6C150.4,74.9,168.1,90,168.1,90c13.5,10.6,62.5,35.9,98.2,13.4
				c1.5-0.7,5.9-3.5,7.1-7.1C275.6,90.7,277.9,56.6,277.9,56.6z"/>
			<path class="st32" d="M277.4,56.6c-24.6,22.1-55.8,33.6-96.4,0.4c-30.6,17.7-12.9,31.9-12.9,31.9c13.5,10.6,62.6,36.8,98.1,14.4
				c1.5-0.7,5.8-3.2,7-6.8C275.4,90.9,277.4,56.6,277.4,56.6z"/>
			<path class="st33" d="M276.9,56.6c-24.7,22.3-55.3,33.4-95.8,0.3c-30.6,17.7-13,30.9-13,30.9c13.5,10.6,62.7,37.7,98,15.5
				c1.5-0.7,5.7-3,6.9-6.5C275.2,91.1,276.9,56.6,276.9,56.6z"/>
		</g>
		<g>
			<defs>
				<path id="XMLID_6_" d="M272.4,58.7c-20.4,16.1-51.7,30.6-92.2-2.6c-30.6,17.7-10,38.3-10,38.3c13.5,10.6,62,29.6,97.3,7.3
					c1.5-0.7,2.4-1.6,3.6-2.7c1.8-3.4,1-8.2-1.4-9.4L272.4,58.7z"/>
			</defs>
			
				<linearGradient id="XMLID_8_" gradientUnits="userSpaceOnUse" x1="1079.2194" y1="6524.6099" x2="1156.9049" y2="6583.0444" gradientTransform="matrix(0.8051 -0.5932 0.5932 0.8051 -4566.2744 -4528.5869)">
				<stop  offset="0" style="stop-color:#C10A2D"/>
				<stop  offset="0.3925" style="stop-color:#DB0E2C"/>
				<stop  offset="0.5203" style="stop-color:#D40E2B"/>
				<stop  offset="0.7022" style="stop-color:#C20F28"/>
				<stop  offset="0.9155" style="stop-color:#A31023"/>
				<stop  offset="1" style="stop-color:#951021"/>
			</linearGradient>
			<use xlink:href="#XMLID_6_"  style="overflow:visible;fill:url(#XMLID_8_);"/>
			<clipPath id="XMLID_9_">
				<use xlink:href="#XMLID_6_"  style="overflow:visible;"/>
			</clipPath>
			
				<linearGradient id="SVGID_1_" gradientUnits="userSpaceOnUse" x1="18.9287" y1="167.953" x2="119.9526" y2="167.953" gradientTransform="matrix(0.7808 0.6248 -0.6248 0.7808 270.8043 -105.3976)">
				<stop  offset="0.628" style="stop-color:#2281C4"/>
				<stop  offset="0.7058" style="stop-color:#217EC1"/>
				<stop  offset="0.7739" style="stop-color:#1E75B6"/>
				<stop  offset="0.8384" style="stop-color:#1866A4"/>
				<stop  offset="0.9008" style="stop-color:#11518B"/>
				<stop  offset="0.9609" style="stop-color:#07366A"/>
				<stop  offset="1" style="stop-color:#002151"/>
			</linearGradient>
			<path class="st34" d="M269.6,51.1c-20.4,16.1-51.3,28.5-91.8-4.6c-30.6,17.7-10,38.3-10,38.3c13.5,10.6,62,29.6,97.3,7.3
				c1.5-0.7,2.4-1.6,3.6-2.7c1.8-3.4,1-8.2-1.4-9.4L269.6,51.1z"/>
			<path class="st35" d="M266.3,41.2c-20.4,16.1-51.3,28.5-91.8-4.6c-30.6,17.7-10,38.3-10,38.3c13.5,10.6,62,29.6,97.3,7.3
				c1.5-0.7,2.4-1.6,3.6-2.7c1.8-3.4,2.4-11.6,0-12.8L266.3,41.2z"/>
		</g>
		
			<image style="overflow:visible;opacity:0.45;" width="453" height="235" xlink:href="614BD46C.png"  transform="matrix(0.24 0 0 0.24 163.2424 55.7246)">
		</image>
	</g>
	<g>
		<g class="st1">
			<path class="st2" d="M296.3,55.1c20.6,16.5,48.4,19,89.7-14.2c9.1,5.9,24.2,31,24.2,31c-13.8,10.7-50.2,44-96.1,29.4
				c-11.2-3.5-15.4-7.2-16.6-10.8C295.4,84.7,296.3,55.1,296.3,55.1z"/>
			<path class="st3" d="M296.7,55.3c20.7,16.7,48,18.8,89.2-14.4c8.8,5.9,23.3,30.3,23.3,30.3c-13.8,10.7-49,43.9-94.6,29.9
				c-11.3-3.4-15.9-7-17.1-10.7C295.5,84.7,296.7,55.3,296.7,55.3z"/>
			<path class="st4" d="M297.1,55.5c20.8,16.8,47.5,18.6,88.8-14.6c8.5,5.8,22.4,29.7,22.4,29.7c-13.8,10.7-47.9,43.9-93.1,30.5
				c-11.5-3.3-16.4-6.8-17.5-10.6C295.6,84.7,297.1,55.5,297.1,55.5z"/>
			<path class="st5" d="M297.4,55.6c21,17,47.1,18.4,88.3-14.8c8.3,5.7,21.5,29.1,21.5,29.1c-13.8,10.6-46.7,43.8-91.6,31
				c-11.7-3.2-16.8-6.6-17.9-10.6C295.6,84.7,297.4,55.6,297.4,55.6z"/>
			<path class="st6" d="M297.8,55.8c21.1,17.2,46.6,18.2,87.8-15c8,5.7,20.6,28.4,20.6,28.4c-13.8,10.6-45.5,43.8-90.1,31.6
				c-11.9-3.1-17.3-6.4-18.3-10.5C295.7,84.6,297.8,55.8,297.8,55.8z"/>
			<path class="st7" d="M298.2,56c21.2,17.4,46.2,18,87.3-15.1c7.7,5.6,19.7,27.8,19.7,27.8c-13.8,10.6-44.4,43.8-88.6,32.1
				c-12-3-17.8-6.2-18.8-10.4C295.8,84.6,298.2,56,298.2,56z"/>
			<path class="st8" d="M298.5,56.2c21.3,17.6,45.7,17.8,86.9-15.3c7.5,5.6,18.8,27.1,18.8,27.1c-13.7,10.6-43.2,43.7-87.1,32.7
				c-12.2-2.9-18.3-6-19.2-10.4C295.9,84.6,298.5,56.2,298.5,56.2z"/>
			<path class="st9" d="M298.9,56.4c21.5,17.8,45.3,17.6,86.4-15.5c7.2,5.5,17.9,26.5,17.9,26.5c-13.7,10.6-42,43.7-85.6,33.2
				c-12.4-2.8-18.7-5.9-19.6-10.3C296,84.6,298.9,56.4,298.9,56.4z"/>
			<path class="st10" d="M299.3,56.5c21.6,18,44.8,17.4,85.9-15.7c6.9,5.5,17,25.9,17,25.9c-13.7,10.6-40.8,43.6-84.1,33.8
				c-12.5-2.7-19.2-5.7-20-10.2C296,84.6,299.3,56.5,299.3,56.5z"/>
			<path class="st11" d="M299.6,56.7C321.3,74.9,344,74,385.1,40.9c6.7,5.4,16.1,25.2,16.1,25.2c-13.7,10.6-39.7,43.6-82.6,34.3
				c-12.7-2.6-19.7-5.5-20.5-10.2C296.1,84.5,299.6,56.7,299.6,56.7z"/>
			<path class="st12" d="M300,56.9c21.9,18.4,43.9,17.1,85-16c6.4,5.4,15.2,24.6,15.2,24.6c-13.7,10.6-38.5,43.5-81.1,34.9
				c-12.9-2.5-20.2-5.3-20.9-10.1C296.2,84.5,300,56.9,300,56.9z"/>
			<path class="st13" d="M300.4,57.1c22,18.6,43.4,16.9,84.5-16.2c6.1,5.3,14.3,24,14.3,24c-13.7,10.6-37.3,43.5-79.6,35.4
				c-13.1-2.4-20.6-5.1-21.3-10C296.3,84.5,300.4,57.1,300.4,57.1z"/>
			<path class="st14" d="M300.7,57.3c22.1,18.8,43,16.7,84.1-16.4c5.9,5.3,13.4,23.3,13.4,23.3c-13.7,10.6-36.2,43.5-78.1,35.9
				c-13.2-2.3-21.1-4.9-21.7-10C296.3,84.5,300.7,57.3,300.7,57.3z"/>
			<path class="st15" d="M301.1,57.5c22.2,19,42.5,16.5,83.6-16.6c5.6,5.2,12.5,22.7,12.5,22.7c-13.7,10.6-35,43.4-76.6,36.5
				c-13.4-2.2-21.6-4.7-22.1-9.9C296.4,84.5,301.1,57.5,301.1,57.5z"/>
			<path class="st16" d="M301.4,57.6c22.4,19.2,42.1,16.3,83.1-16.8c5.3,5.2,11.6,22,11.6,22c-13.7,10.6-33.8,43.4-75,37
				c-13.6-2.1-22.1-4.5-22.6-9.8C296.5,84.5,301.4,57.6,301.4,57.6z"/>
			<path class="st17" d="M301.8,57.8c22.5,19.3,41.6,16.1,82.7-16.9c5.1,5.1,10.7,21.4,10.7,21.4c-13.7,10.6-32.7,43.3-73.5,37.6
				c-13.8-2-22.6-4.4-23-9.8C296.6,84.4,301.8,57.8,301.8,57.8z"/>
			<path class="st18" d="M302.2,58c22.6,19.5,41.2,15.9,82.2-17.1c4.8,5,9.8,20.8,9.8,20.8c-13.7,10.6-31.5,43.3-72,38.1
				c-13.9-1.9-23-4.2-23.4-9.7C296.7,84.4,302.2,58,302.2,58z"/>
			<path class="st19" d="M302.5,58.2c22.7,19.7,40.7,15.7,81.7-17.3c4.5,5,8.9,20.1,8.9,20.1c-13.7,10.6-30.3,43.2-70.5,38.7
				c-14.1-1.8-23.5-4-23.8-9.6C296.7,84.4,302.5,58.2,302.5,58.2z"/>
			<path class="st20" d="M302.9,58.4c22.9,19.9,40.3,15.5,81.3-17.5c4.3,4.9,8,19.5,8,19.5c-13.7,10.6-29.1,43.2-69,39.2
				c-14.3-1.7-24-3.8-24.3-9.6C296.8,84.4,302.9,58.4,302.9,58.4z"/>
			<path class="st21" d="M303.3,58.5c23,20.1,39.8,15.3,80.8-17.7c4,4.9,7.1,18.9,7.1,18.9c-13.7,10.6-28,43.2-67.5,39.8
				c-14.4-1.6-24.5-3.6-24.7-9.5C296.9,84.4,303.3,58.5,303.3,58.5z"/>
			<path class="st22" d="M303.6,58.7C326.8,79,343,73.8,384,40.9c3.7,4.8,6.2,18.2,6.2,18.2c-13.7,10.6-26.8,43.1-66,40.3
				c-14.6-1.5-24.9-3.4-25.1-9.4C297,84.3,303.6,58.7,303.6,58.7z"/>
			<path class="st23" d="M304,58.9c23.3,20.5,38.9,14.9,79.9-18c3.5,4.8,5.3,17.6,5.3,17.6c-13.7,10.6-25.6,43.1-64.5,40.9
				c-14.8-1.4-25.4-3.2-25.5-9.4C297.1,84.3,304,58.9,304,58.9z"/>
			<path class="st24" d="M304.4,59.1c23.4,20.7,38.5,14.7,79.4-18.2c3.2,4.7,4.4,16.9,4.4,16.9c-13.7,10.6-24.5,43-63,41.4
				c-15-1.3-25.9-3-25.9-9.3C297.1,84.3,304.4,59.1,304.4,59.1z"/>
			<path class="st25" d="M304.7,59.3c23.5,20.9,38,14.5,78.9-18.4c2.9,4.7,3.5,16.3,3.5,16.3c-13.7,10.6-23.3,43-61.5,42
				c-15.1-1.2-26.4-2.8-26.4-9.2C297.2,84.3,304.7,59.3,304.7,59.3z"/>
			<path class="st26" d="M305.1,59.4c23.6,21.1,37.6,14.4,78.4-18.6c2.7,4.6,2.6,15.7,2.6,15.7c-13.6,10.6-22.1,43-60,42.5
				c-15.3-1.1-26.9-2.7-26.8-9.2C297.3,84.3,305.1,59.4,305.1,59.4z"/>
			<path class="st27" d="M305.5,59.6c23.8,21.3,37.1,14.2,78-18.7c2.4,4.6,1.7,15,1.7,15c-13.6,10.6-20.9,42.9-58.5,43.1
				c-15.5-1-27.3-2.5-27.2-9.1C297.4,84.2,305.5,59.6,305.5,59.6z"/>
			<path class="st28" d="M305.8,59.8c23.9,21.5,36.7,14,77.5-18.9c2.1,4.5,0.8,14.4,0.8,14.4c-13.6,10.6-19.8,42.9-57,43.6
				c-15.7-0.9-27.8-2.3-27.6-9C297.4,84.2,305.8,59.8,305.8,59.8z"/>
			<path class="st29" d="M306.2,60c24,21.7,36.2,13.8,77-19.1c1.9,4.5,0,13.8,0,13.8c-13.6,10.5-18.6,42.8-55.5,44.2
				c-15.8-0.8-28.3-2.1-28.1-9C297.5,84.2,306.2,60,306.2,60z"/>
			<path class="st30" d="M306.6,60.2c24.1,21.9,35.8,13.6,76.6-19.3c1.6,4.4-0.9,13.1-0.9,13.1c-13.6,10.5-17.4,42.8-54,44.7
				c-16-0.7-28.8-1.9-28.5-8.9C297.6,84.2,306.6,60.2,306.6,60.2z"/>
			<path class="st31" d="M306.9,60.3c24.3,22,35.3,13.4,76.1-19.4c1.3,4.3-1.8,12.5-1.8,12.5c-13.6,10.5-16.3,42.7-52.5,45.3
				c-16.2-0.6-29.2-1.7-28.9-8.8C297.7,84.2,306.9,60.3,306.9,60.3z"/>
			<path class="st32" d="M307.3,60.5c24.4,22.2,34.9,13.2,75.6-19.6c1.1,4.3-2.7,11.8-2.7,11.8c-13.6,10.5-15.1,42.7-51,45.8
				c-16.4-0.5-29.7-1.5-29.3-8.8C297.8,84.1,307.3,60.5,307.3,60.5z"/>
			<path class="st33" d="M307.7,60.7c24.5,22.4,34.4,13,75.2-19.8c0.8,4.2-3.6,11.2-3.6,11.2c-13.6,10.5-13.9,42.7-49.5,46.4
				c-16.5-0.4-30.2-1.3-29.8-8.7C297.8,84.1,307.7,60.7,307.7,60.7z"/>
		</g>
		<g>
			<defs>
				<path id="XMLID_5_" d="M364.5,50.7c-14.7,9.4-27.1,15.4-54.6,0.8l-3.8,31.7c-4.9-1.5-8.1,7-3.2,10.3c3.5,2.4,8,2.8,11.6,3.2
					c0,0,0-0.1,0-0.1c19.4,2.2,34.9-5.3,43-13.1C367.7,73.6,366.5,52.7,364.5,50.7z"/>
			</defs>
			
				<linearGradient id="XMLID_10_" gradientUnits="userSpaceOnUse" x1="1199.5773" y1="6598.439" x2="1241.0427" y2="6633.6733" gradientTransform="matrix(0.8051 -0.5932 0.5932 0.8051 -4566.2744 -4528.5869)">
				<stop  offset="0" style="stop-color:#941216"/>
				<stop  offset="1.701077e-02" style="stop-color:#981218"/>
				<stop  offset="0.1898" style="stop-color:#BF1228"/>
				<stop  offset="0.3488" style="stop-color:#DB1133"/>
				<stop  offset="0.4878" style="stop-color:#EC113B"/>
				<stop  offset="0.5914" style="stop-color:#F2113D"/>
				<stop  offset="1" style="stop-color:#C10A2D"/>
			</linearGradient>
			<use xlink:href="#XMLID_5_"  style="overflow:visible;fill:url(#XMLID_10_);"/>
			<clipPath id="XMLID_11_">
				<use xlink:href="#XMLID_5_"  style="overflow:visible;"/>
			</clipPath>
			
				<linearGradient id="SVGID_2_" gradientUnits="userSpaceOnUse" x1="1267.0629" y1="6600.6216" x2="1306.97" y2="6634.5317" gradientTransform="matrix(0.8158 -0.5784 0.5784 0.8158 -4536.7422 -4590.1753)">
				<stop  offset="0" style="stop-color:#002151"/>
				<stop  offset="0.3333" style="stop-color:#2281C4"/>
				<stop  offset="1" style="stop-color:#005BAE"/>
			</linearGradient>
			<path class="st36" d="M363,41.4c-14.9,9.1-27.4,14.9-54.6-0.2l-4.4,31.6c2.3,5.6-0.9,8.1-3.3,10.2c3.4,2.5,7.9,2.9,11.5,3.4
				c0,0,0-0.1,0-0.1c19.4,2.5,36.7-6.3,43.8-12.2C366.9,65,365,43.5,363,41.4z"/>
			
				<linearGradient id="SVGID_3_" gradientUnits="userSpaceOnUse" x1="157.7071" y1="-25.6108" x2="215.3904" y2="-25.6108" gradientTransform="matrix(0.7587 0.6515 -0.6515 0.7587 173.3802 -53.8261)">
				<stop  offset="0.2957" style="stop-color:#DD5B28"/>
				<stop  offset="0.366" style="stop-color:#DE6028"/>
				<stop  offset="0.4442" style="stop-color:#E16D26"/>
				<stop  offset="0.5262" style="stop-color:#E68324"/>
				<stop  offset="0.611" style="stop-color:#EDA221"/>
				<stop  offset="0.6969" style="stop-color:#F6CA1D"/>
				<stop  offset="0.7473" style="stop-color:#FCE51A"/>
			</linearGradient>
			<path class="st37" d="M363.1,30.2c-14.8,9.4-27.1,15.3-54.6,0.6l-3.9,31.7c-4.9-1.5-3,5.9,1.9,9.1c3.5,2.4,2.9,3.9,6.5,4.4
				c0,0,0-0.1,0-0.1c19.4,2.3,36.6-6.8,43.6-12.8C367.3,53.8,365.1,32.3,363.1,30.2z"/>
		</g>
		<defs>
			<filter id="Adobe_OpacityMaskFilter" filterUnits="userSpaceOnUse" x="300.3" y="50.2" width="66" height="46.6">
				<feFlood  style="flood-color:white;flood-opacity:1" result="back"/>
				<feBlend  in="SourceGraphic" in2="back" mode="normal"/>
			</filter>
		</defs>
		<mask maskUnits="userSpaceOnUse" x="300.3" y="50.2" width="66" height="46.6" id="SVGID_4_">
			<g class="st38">
				
					<image style="overflow:visible;" width="65.7" height="46.2" xlink:href="337C7832.png"  transform="matrix(1 0 0 1 300.4286 50.4044)"/>
			</g>
		</mask>
		<g class="st39">
			<g style="opacity:0.5;">
				
					<image style="overflow:visible;" width="275" height="194" xlink:href="614BD46F.png"  transform="matrix(0.24 0 0 0.24 300.2824 50.2046)">
				</image>
			</g>
		</g>
	</g>
	
		<linearGradient id="SVGID_5_" gradientUnits="userSpaceOnUse" x1="112.0854" y1="288.8254" x2="188.8316" y2="175.4214" gradientTransform="matrix(0.7999 0.6001 -0.6001 0.7999 314.6008 -190.2973)">
		<stop  offset="4.301070e-02" style="stop-color:#DB0E2C"/>
		<stop  offset="0.3172" style="stop-color:#AA042C"/>
		<stop  offset="0.4624" style="stop-color:#F2113D"/>
		<stop  offset="0.5968" style="stop-color:#AA042C"/>
		<stop  offset="1" style="stop-color:#C10A2D"/>
	</linearGradient>
	<path class="st40" d="M232.4,112.3l0-0.4c13.3-0.5,24.7-3.8,33.8-9.5c4-2.2,5.7-4.3,5.5-6.5c-0.2-2-1.6-3.4-4-4.2
		c-2.4-0.8-7.8-3.1-6.6-8.3c1.5-6.5,9.6-13,20.5-16.5c13.6-4.4,25.8-4.1,31.9,0.8c0,0,0,0,0,0c3.1,2.5,4.3,6.1,3.3,10
		c-0.9,3.4-3.2,5-7.9,5.4c-4.4,0.4-7.5,2.5-8.1,5.5c-0.4,2.2,0.7,4.1,3.6,5.7c2.6,1.4,26.1,7.8,48.4-7.2c3-2,9.4-9.1,11.2-12.2
		l0.3,0.2c-1.7,2.8-8,10.1-11.3,12.3c-22.4,15-46.2,8.6-48.8,7.2c-3-1.7-4.3-3.7-3.8-6.1c0.6-3.2,3.9-5.4,8.5-5.8
		c4.5-0.4,6.7-1.9,7.5-5.2c1.3-4.8-1-7.9-3.2-9.6c-6.1-4.8-18.2-5.1-31.6-0.7c-10.8,3.5-18.7,9.9-20.2,16.2
		c-1.1,4.8,4.1,7.1,6.4,7.8c3.2,1.1,4.1,3.1,4.3,4.6c0.2,2.4-1.6,4.5-5.7,6.9C257.2,108.5,245.8,111.8,232.4,112.3z"/>
	<g>
		
			<image style="overflow:visible;opacity:0.75;" width="1197" height="780" xlink:href="614BD46D.png"  transform="matrix(0.24 0 0 0.24 200.2852 59.4873)">
		</image>
		<g>
			<path class="st0" d="M269.7,177.5l46.1-111.3l27.3-0.7l-30.9,167l-26.6,0.7l14.3-76.8l-30.5,77.2l-19.4,0.5l-2.5-76.9L233,234.5
				l-26.9,0.7l30.9-167l27.3-0.7L269.7,177.5z M405.7,172.8l-3.3,60.4h-27.5l1.9-34.9h-20.1l-11,34.9h-27.4l18.8-60.1l36.4-107.9
				h35.4L405.7,172.8z M378.3,171.1l2.7-50.4l-15.8,50.4H378.3z M406.8,233.2l30.8-168h27.3l-25.8,140.8H476l-5,27.2H406.8z"/>
		</g>
	</g>
	<g>
		<path class="st0" d="M278.9,70l4.4-0.1c2.2,0,3.3,0.8,3.3,2.5c0,0.3,0,0.7-0.1,1.1l-1.8,9.7c-0.5,2.4-2,3.7-4.7,3.8l-4.3,0.1
			L278.9,70z M281.6,72.6l-2.2,11.6l1,0c0.6,0,1-0.3,1.1-1l1.8-9.7c0-0.1,0-0.2,0-0.3c0-0.4-0.3-0.6-0.8-0.6L281.6,72.6z"/>
		<path class="st0" d="M288.6,69.7l7.6-0.2l-0.5,2.7l-4.4,0.1l-0.8,4.5l3.7-0.1l-0.5,2.7l-3.7,0.1l-0.8,4.5l4.4-0.1l-0.5,2.7
			l-7.6,0.2L288.6,69.7z"/>
		<path class="st0" d="M294,86.6l3.2-17.1l3.2-0.1l-2.7,14.4l4.3-0.1l-0.5,2.7L294,86.6z"/>
	</g>
	<g>
		<g>
			<defs>
				<path id="XMLID_4_" d="M271.2,98.8c1.2-2.5,1.5-5.6-4.5-7.7c-3.3-1.2-6.3-2.7-5.3-8.5c1-5.8,14.1-14.7,14.1-14.7
					S275,94.3,271.2,98.8z"/>
			</defs>
			
				<linearGradient id="XMLID_12_" gradientUnits="userSpaceOnUse" x1="109.1216" y1="149.8874" x2="122.7844" y2="144.6427" gradientTransform="matrix(0.7808 0.6248 -0.6248 0.7808 270.8043 -105.3976)">
				<stop  offset="0.1344" style="stop-color:#750311"/>
				<stop  offset="0.2547" style="stop-color:#830516"/>
				<stop  offset="0.4805" style="stop-color:#A70922"/>
				<stop  offset="0.7854" style="stop-color:#E00F37"/>
				<stop  offset="0.871" style="stop-color:#F2113D"/>
			</linearGradient>
			<use xlink:href="#XMLID_4_"  style="overflow:visible;fill:url(#XMLID_12_);"/>
			<clipPath id="XMLID_13_">
				<use xlink:href="#XMLID_4_"  style="overflow:visible;"/>
			</clipPath>
			
				<linearGradient id="SVGID_6_" gradientUnits="userSpaceOnUse" x1="1136.2634" y1="6577.5435" x2="1123.5441" y2="6567.2261" gradientTransform="matrix(0.7986 -0.602 0.602 0.7986 -4585.3237 -4494.1138)">
				<stop  offset="0.3509" style="stop-color:#2281C4"/>
				<stop  offset="0.4186" style="stop-color:#1D72B2"/>
				<stop  offset="0.5531" style="stop-color:#0F4C84"/>
				<stop  offset="0.6871" style="stop-color:#002151"/>
			</linearGradient>
			<path class="st41" d="M274.1,90.1c1.2-2.5,1.1-6.1-4.8-8.2c-3.3-1.2-6-2.3-5.1-8.1c1-5.8,13.9-14.8,13.9-14.8
				S277.7,85.6,274.1,90.1z"/>
			<path class="st42" d="M274.8,82c1.2-2.5,1.1-6.1-4.8-8.2c-3.3-1.2-6-2.3-5.1-8.1c1-5.8,13.9-14.8,13.9-14.8S278.5,77.5,274.8,82z
				"/>
		</g>
		<g>
			<defs>
				<path id="XMLID_3_" d="M300.6,90.1c-0.3-2.7,2-5.8,7.4-7c3.9-0.9,7.2-0.8,8.5-4.9c3.1-9.7-8.8-17.6-8.8-17.6
					S298.7,82.5,300.6,90.1z"/>
			</defs>
			
				<linearGradient id="XMLID_14_" gradientUnits="userSpaceOnUse" x1="1186.9333" y1="6592.7354" x2="1196.976" y2="6603.0596" gradientTransform="matrix(0.8051 -0.5932 0.5932 0.8051 -4566.2744 -4528.5869)">
				<stop  offset="0.1828" style="stop-color:#F2113D"/>
				<stop  offset="0.6667" style="stop-color:#750311"/>
			</linearGradient>
			<use xlink:href="#XMLID_3_"  style="overflow:visible;fill:url(#XMLID_14_);"/>
			<clipPath id="XMLID_15_">
				<use xlink:href="#XMLID_3_"  style="overflow:visible;"/>
			</clipPath>
			
				<linearGradient id="SVGID_7_" gradientUnits="userSpaceOnUse" x1="1192.4751" y1="6586.0791" x2="1202.5177" y2="6596.4028" gradientTransform="matrix(0.8051 -0.5932 0.5932 0.8051 -4566.2744 -4528.5869)">
				<stop  offset="0.3509" style="stop-color:#2281C4"/>
				<stop  offset="0.4186" style="stop-color:#1D72B2"/>
				<stop  offset="0.5531" style="stop-color:#0F4C84"/>
				<stop  offset="0.6871" style="stop-color:#002151"/>
			</linearGradient>
			<path class="st43" d="M301.1,81.5c-0.3-2.7,2-5.8,7.4-7c3.9-0.9,7.2-0.8,8.5-4.9c3.1-9.7-8.8-17.6-8.8-17.6
				S299.2,73.9,301.1,81.5z"/>
			<path class="st44" d="M302.7,74c-0.3-2.7,2-5.8,7.4-7c3.9-0.9,7.2-0.8,8.5-4.9c3.1-9.7-8.8-17.6-8.8-17.6S300.7,66.3,302.7,74z"
				/>
		</g>
		<g>
			<defs>
				<path id="XMLID_2_" d="M317,77.3c2.1-24.2-52.6-11.8-55.7,6.2l5.8-33.3c3.1-20.3,50.1-28.9,54.4-3.9
					C320.8,62.2,318.5,67,317,77.3z"/>
			</defs>
			
				<linearGradient id="XMLID_16_" gradientUnits="userSpaceOnUse" x1="1210.2452" y1="6590.3794" x2="1172.1782" y2="6559.416" gradientTransform="matrix(0.8051 -0.5932 0.5932 0.8051 -4566.2744 -4528.5869)">
				<stop  offset="0" style="stop-color:#FFAE13"/>
				<stop  offset="0.2258" style="stop-color:#FCE51A"/>
				<stop  offset="0.4315" style="stop-color:#FFAE13"/>
				<stop  offset="0.5355" style="stop-color:#F18B1C"/>
				<stop  offset="0.6382" style="stop-color:#E67122"/>
				<stop  offset="0.7294" style="stop-color:#DF6127"/>
				<stop  offset="0.8" style="stop-color:#DD5B28"/>
				<stop  offset="0.8536" style="stop-color:#DE5E27"/>
				<stop  offset="0.9005" style="stop-color:#E26924"/>
				<stop  offset="0.945" style="stop-color:#E87B1F"/>
				<stop  offset="0.9876" style="stop-color:#F09418"/>
				<stop  offset="1" style="stop-color:#F39D16"/>
			</linearGradient>
			<use xlink:href="#XMLID_2_"  style="overflow:visible;fill:url(#XMLID_16_);"/>
			<clipPath id="XMLID_17_">
				<use xlink:href="#XMLID_2_"  style="overflow:visible;"/>
			</clipPath>
			
				<linearGradient id="SVGID_8_" gradientUnits="userSpaceOnUse" x1="1212.2698" y1="6596.7725" x2="1173.438" y2="6565.187" gradientTransform="matrix(0.8062 -0.5915 0.5915 0.8062 -4561.8804 -4538.2437)">
				<stop  offset="0" style="stop-color:#C10A2D"/>
				<stop  offset="0.1828" style="stop-color:#F2113D"/>
				<stop  offset="0.6667" style="stop-color:#9F161A"/>
				<stop  offset="0.7804" style="stop-color:#A6141E"/>
				<stop  offset="0.9433" style="stop-color:#B90D28"/>
				<stop  offset="1" style="stop-color:#C10A2D"/>
			</linearGradient>
			<path class="st45" d="M317.1,82.5c2.2-24.4-53.9-13.4-57.1,4.8l6.5-32.5c3.1-20.4,50.6-29,54.9-3.8
				C320.7,67,318.7,72.1,317.1,82.5z"/>
			
				<linearGradient id="SVGID_9_" gradientUnits="userSpaceOnUse" x1="1400.0526" y1="6597.3242" x2="1361.3075" y2="6565.8091" gradientTransform="matrix(0.8366 -0.5477 0.5477 0.8366 -4464.2642 -4702.604)">
				<stop  offset="0" style="stop-color:#005BAE"/>
				<stop  offset="6.910978e-02" style="stop-color:#0F6BB7"/>
				<stop  offset="0.1643" style="stop-color:#1D7BC1"/>
				<stop  offset="0.238" style="stop-color:#2281C4"/>
				<stop  offset="0.341" style="stop-color:#1371BB"/>
				<stop  offset="0.4829" style="stop-color:#0561B1"/>
				<stop  offset="0.5928" style="stop-color:#005BAE"/>
				<stop  offset="0.6467" style="stop-color:#004A93"/>
				<stop  offset="0.7489" style="stop-color:#002C63"/>
				<stop  offset="0.8" style="stop-color:#002151"/>
				<stop  offset="0.846" style="stop-color:#002354"/>
				<stop  offset="0.8863" style="stop-color:#002A5F"/>
				<stop  offset="0.9244" style="stop-color:#003571"/>
				<stop  offset="0.9612" style="stop-color:#00458A"/>
				<stop  offset="0.9968" style="stop-color:#0059AB"/>
				<stop  offset="1" style="stop-color:#005BAE"/>
			</linearGradient>
			<path class="st46" d="M319.1,69.3c3.5-24.2-53-16.2-57.2,1.7l8.2-32c4.2-20.2,52-26.2,54.9-0.9C323.5,54,321.2,59,319.1,69.3z"/>
			
				<linearGradient id="SVGID_10_" gradientUnits="userSpaceOnUse" x1="101.5286" y1="52.1285" x2="160.3004" y2="52.1285" gradientTransform="matrix(0.7714 0.6363 -0.6363 0.7714 228.9456 -80.6036)">
				<stop  offset="0.3387" style="stop-color:#F39D16"/>
				<stop  offset="0.352" style="stop-color:#F4A316"/>
				<stop  offset="0.4579" style="stop-color:#FAD319"/>
				<stop  offset="0.5108" style="stop-color:#FCE51A"/>
			</linearGradient>
			<path class="st47" d="M320.5,60.4c3.9-24.1-52.8-18.3-56.5,0.4l8-31.5c4.5-20.1,52.4-25.5,54.9-0.1
				C325.1,45.2,322.8,50.1,320.5,60.4z"/>
		</g>
		
			<linearGradient id="XMLID_18_" gradientUnits="userSpaceOnUse" x1="1210.2452" y1="6590.3794" x2="1172.1782" y2="6559.416" gradientTransform="matrix(0.8051 -0.5932 0.5932 0.8051 -4566.2744 -4528.5869)">
			<stop  offset="0" style="stop-color:#D9D9D9"/>
			<stop  offset="0.2258" style="stop-color:#FFFFFF"/>
			<stop  offset="0.4315" style="stop-color:#E6E7E8"/>
			<stop  offset="0.5088" style="stop-color:#BFC0C0"/>
			<stop  offset="0.5944" style="stop-color:#9B9B9B"/>
			<stop  offset="0.6742" style="stop-color:#808181"/>
			<stop  offset="0.7452" style="stop-color:#717171"/>
			<stop  offset="0.8" style="stop-color:#6B6B6B"/>
			<stop  offset="0.8427" style="stop-color:#6E6E6E"/>
			<stop  offset="0.88" style="stop-color:#797979"/>
			<stop  offset="0.9154" style="stop-color:#8B8B8B"/>
			<stop  offset="0.9496" style="stop-color:#A4A4A4"/>
			<stop  offset="0.9826" style="stop-color:#C5C5C5"/>
			<stop  offset="1" style="stop-color:#D9D9D9"/>
		</linearGradient>
		<path id="XMLID_1_" class="st48" d="M317,77.3c2.1-24.2-52.6-11.8-55.7,6.2l5.8-33.3c3.1-20.3,50.1-28.9,54.4-3.9
			C320.8,62.2,318.5,67,317,77.3z"/>
	</g>
</g>
</svg>
