<?xml version="1.0" encoding="utf-8"?>
<!-- Generator: Adobe Illustrator 24.1.2, SVG Export Plug-In . SVG Version: 6.00 Build 0)  -->
<svg version="1.1" id="Layer_1" xmlns="http://www.w3.org/2000/svg" xmlns:xlink="http://www.w3.org/1999/xlink" x="0px" y="0px"
	 viewBox="0 0 22 253" style="enable-background:new 0 0 22 253;" xml:space="preserve">
<style type="text/css">
	.st0{fill:#FFFFFF;}
</style>
<g>
	<g>
		<polygon class="st0" points="10.13,236.73 10.13,234.68 10.2,234.69 10.16,236.73 		"/>
		<polygon class="st0" points="10.13,232.64 10.13,230.59 10.26,230.59 10.23,232.64 		"/>
		<polygon class="st0" points="10.13,228.54 10.13,226.49 10.32,226.49 10.29,228.54 		"/>
		<polygon class="st0" points="10.12,224.44 10.12,222.39 10.38,222.39 10.35,224.44 		"/>
		<polygon class="st0" points="10.12,220.34 10.12,218.29 10.45,218.29 10.42,220.34 		"/>
		<polygon class="st0" points="10.12,216.24 10.11,214.19 10.51,214.2 10.48,216.24 		"/>
		<polygon class="st0" points="10.11,212.14 10.11,210.09 10.57,210.1 10.54,212.15 		"/>
		<polygon class="st0" points="10.11,208.04 10.11,206 10.63,206 10.61,208.05 		"/>
		<polygon class="st0" points="10.12,203.95 10.12,201.9 10.68,201.9 10.65,203.95 		"/>
		<polygon class="st0" points="10.13,199.85 10.14,197.8 10.73,197.8 10.7,199.85 		"/>
		<polygon class="st0" points="10.14,195.75 10.15,193.7 10.78,193.71 10.75,195.75 		"/>
		<polygon class="st0" points="10.15,191.65 10.16,189.6 10.82,189.61 10.8,191.66 		"/>
		<polygon class="st0" points="10.16,187.55 10.17,185.5 10.87,185.51 10.85,187.56 		"/>
		<polygon class="st0" points="10.17,183.46 10.18,181.41 10.92,181.41 10.9,183.46 		"/>
		<polygon class="st0" points="10.18,179.36 10.19,177.31 10.97,177.31 10.95,179.36 		"/>
		<polygon class="st0" points="10.19,175.26 10.2,173.21 11.02,173.22 10.99,175.26 		"/>
		<polygon class="st0" points="10.21,171.16 10.22,169.11 11.06,169.12 11.04,171.17 		"/>
		<polygon class="st0" points="10.23,167.06 10.24,165.01 11.1,165.02 11.08,167.07 		"/>
		<polygon class="st0" points="10.25,162.96 10.26,160.91 11.13,160.92 11.12,162.97 		"/>
		<polygon class="st0" points="10.27,158.87 10.29,156.82 11.17,156.82 11.15,158.87 		"/>
		<polygon class="st0" points="10.3,154.77 10.31,152.72 11.21,152.72 11.19,154.77 		"/>
		<polygon class="st0" points="10.32,150.67 10.33,148.62 11.24,148.63 11.22,150.68 		"/>
		<polygon class="st0" points="10.34,146.57 10.36,144.52 11.28,144.53 11.26,146.58 		"/>
		<polygon class="st0" points="10.37,142.47 10.38,140.42 11.31,140.43 11.3,142.48 		"/>
		<polygon class="st0" points="10.39,138.37 10.4,136.33 11.35,136.33 11.33,138.38 		"/>
		<polygon class="st0" points="10.41,134.28 10.43,132.23 11.39,132.23 11.37,134.28 		"/>
		<polygon class="st0" points="10.44,130.18 10.45,128.13 11.42,128.14 11.4,130.19 		"/>
		<polygon class="st0" points="10.46,126.08 10.47,124.03 11.46,124.04 11.44,126.09 		"/>
		<polygon class="st0" points="10.48,121.98 10.5,119.93 11.49,119.94 11.48,121.99 		"/>
		<polygon class="st0" points="10.51,117.88 10.53,115.83 11.52,115.84 11.51,117.89 		"/>
		<polygon class="st0" points="10.55,113.79 10.57,111.74 11.54,111.74 11.53,113.79 		"/>
		<polygon class="st0" points="10.58,109.69 10.6,107.64 11.57,107.65 11.56,109.69 		"/>
		<polygon class="st0" points="10.62,105.59 10.64,103.54 11.59,103.55 11.58,105.6 		"/>
		<polygon class="st0" points="10.66,101.49 10.67,99.44 11.61,99.45 11.6,101.5 		"/>
		<polygon class="st0" points="10.69,97.39 10.71,95.34 11.64,95.35 11.63,97.4 		"/>
		<polygon class="st0" points="10.73,93.29 10.75,91.25 11.66,91.25 11.65,93.3 		"/>
		<polygon class="st0" points="10.76,89.2 10.78,87.15 11.68,87.15 11.67,89.2 		"/>
		<polygon class="st0" points="10.8,85.1 10.82,83.05 11.71,83.06 11.7,85.11 		"/>
		<polygon class="st0" points="10.83,81 10.85,78.95 11.73,78.96 11.72,81.01 		"/>
		<polygon class="st0" points="10.87,76.9 10.89,74.85 11.75,74.86 11.74,76.91 		"/>
		<polygon class="st0" points="10.91,72.8 10.92,70.76 11.78,70.76 11.77,72.81 		"/>
		<polygon class="st0" points="10.94,68.71 10.96,66.66 11.8,66.66 11.79,68.71 		"/>
		<polygon class="st0" points="10.99,64.61 11.01,62.56 11.81,62.57 11.8,64.61 		"/>
		<polygon class="st0" points="11.04,60.51 11.06,58.46 11.82,58.47 11.81,60.52 		"/>
		<polygon class="st0" points="11.09,56.41 11.11,54.36 11.83,54.37 11.82,56.42 		"/>
		<polygon class="st0" points="11.13,52.31 11.16,50.27 11.84,50.27 11.84,52.32 		"/>
		<polygon class="st0" points="11.18,48.22 11.21,46.17 11.85,46.17 11.85,48.22 		"/>
		<polygon class="st0" points="11.23,44.12 11.26,42.07 11.86,42.07 11.86,44.12 		"/>
		<polygon class="st0" points="11.28,40.02 11.3,37.97 11.87,37.98 11.87,40.02 		"/>
		<polygon class="st0" points="11.33,35.92 11.35,33.87 11.88,33.88 11.88,35.93 		"/>
		<polygon class="st0" points="11.38,31.82 11.4,29.78 11.89,29.78 11.89,31.83 		"/>
		<polygon class="st0" points="11.44,27.73 11.47,25.68 11.89,25.68 11.89,27.73 		"/>
		<polygon class="st0" points="11.5,23.63 11.53,21.58 11.88,21.58 11.89,23.63 		"/>
		<polygon class="st0" points="11.56,19.53 11.59,17.48 11.88,17.48 11.88,19.53 		"/>
		<polygon class="st0" points="11.63,15.43 11.66,13.38 11.88,13.39 11.88,15.43 		"/>
		<polygon class="st0" points="11.69,11.33 11.72,9.29 11.87,9.29 11.87,11.34 		"/>
		<polygon class="st0" points="11.75,7.24 11.78,5.19 11.87,5.19 11.87,7.24 		"/>
		<polygon class="st0" points="11.82,3.14 11.84,1.79 11.87,1.79 11.87,3.14 		"/>
		<g>
			<path class="st0" d="M12.03,236.65c-0.01,1.04-0.86,1.87-1.89,1.87s-1.87-0.86-1.87-1.89c0.01-1.04,0.86-1.87,1.89-1.87
				S12.04,235.62,12.03,236.65z"/>
		</g>
		<g>
			<path class="st0" d="M13.73,1.89C13.74,0.86,12.9,0.01,11.86,0S9.98,0.83,9.97,1.87C9.96,2.9,10.8,3.75,11.84,3.76
				C12.87,3.77,13.72,2.93,13.73,1.89z"/>
		</g>
	</g>
</g>
</svg>
