<?xml version="1.0" encoding="utf-8"?>
<!-- Generator: Adobe Illustrator 24.1.2, SVG Export Plug-In . SVG Version: 6.00 Build 0)  -->
<svg version="1.1" id="Layer_1" xmlns="http://www.w3.org/2000/svg" xmlns:xlink="http://www.w3.org/1999/xlink" x="0px" y="0px"
	 viewBox="0 0 40 40" enable-background="new 0 0 40 40" xml:space="preserve">
<g>
	<g>
		<g>
			<g>
				<path fill="#DE5648" d="M14.79,10.38h0.46c1.13,0.06,2.24,0.62,2.93,1.53c0.45,0.58,0.7,1.29,0.76,2.02v0.27
					c-0.03,1.41-0.93,2.56-1.71,3.66c-0.88,1.24-1.68,2.59-1.91,4.11c-0.06,0.26,0.01,0.62-0.3,0.74c-0.07-0.06-0.16-0.1-0.21-0.18
					c-0.09-0.85-0.3-1.69-0.67-2.47c-0.41-0.91-0.99-1.73-1.57-2.53c-0.36-0.48-0.69-0.98-0.97-1.51c-0.44-0.8-0.6-1.74-0.42-2.63
					c0.15-0.7,0.51-1.36,1.03-1.86C12.9,10.85,13.83,10.44,14.79,10.38z M14.7,12.86c-0.54,0.12-0.99,0.6-1.04,1.15
					c-0.06,0.52,0.25,1.05,0.71,1.27c0.5,0.27,1.17,0.19,1.59-0.2c0.39-0.35,0.54-0.95,0.33-1.43C16.05,13.05,15.33,12.7,14.7,12.86
					z"/>
			</g>
		</g>
		<g>
			<path fill="#7A2C2B" d="M14.7,12.86c0.63-0.16,1.35,0.19,1.59,0.79c0.21,0.49,0.06,1.09-0.33,1.43c-0.42,0.39-1.08,0.47-1.59,0.2
				c-0.47-0.23-0.77-0.76-0.71-1.27C13.71,13.46,14.16,12.98,14.7,12.86z"/>
		</g>
	</g>
	<g>
		<path fill="#FFFFFF" d="M18.81,18.63c-0.56,0.25-1.12,0.49-1.67,0.76c-0.04,0.02,0,0.07,0.03,0.06c0.56-0.25,1.1-0.52,1.65-0.79
			C18.85,18.65,18.83,18.62,18.81,18.63L18.81,18.63z"/>
		<path fill="#FFFFFF" d="M12.03,21.67c0.46-0.2,0.92-0.38,1.39-0.55c0.03-0.01,0.02-0.07-0.02-0.06c-0.48,0.15-0.94,0.36-1.39,0.58
			C11.99,21.65,12.01,21.67,12.03,21.67L12.03,21.67z"/>
		<path fill="#FFFFFF" d="M19.91,24.15c-0.13-0.15-0.26-0.32-0.41-0.45c-0.03-0.03-0.07,0.01-0.05,0.05
			c0.13,0.16,0.28,0.3,0.42,0.45C19.9,24.21,19.93,24.17,19.91,24.15L19.91,24.15z"/>
		<path fill="#FFFFFF" d="M20,24.03c-0.06-0.11-0.12-0.21-0.19-0.31c-0.02-0.03-0.08,0-0.05,0.03c0.07,0.1,0.14,0.2,0.22,0.3
			C19.99,24.06,20.01,24.04,20,24.03L20,24.03z"/>
		<path fill="#FFFFFF" d="M25.86,21.66c-0.13-0.09-0.27-0.2-0.41-0.28c-0.03-0.02-0.06,0.03-0.03,0.05c0.13,0.1,0.28,0.17,0.42,0.26
			C25.86,21.7,25.88,21.67,25.86,21.66L25.86,21.66z"/>
		<path fill="#FFFFFF" d="M26.15,21.69c-0.09-0.09-0.19-0.17-0.29-0.25c-0.09-0.07-0.17-0.16-0.27-0.22
			c-0.03-0.02-0.06,0.03-0.04,0.05c0.09,0.09,0.19,0.17,0.29,0.25c0.09,0.07,0.18,0.15,0.27,0.21
			C26.14,21.74,26.17,21.71,26.15,21.69L26.15,21.69z"/>
		<path fill="#FFFFFF" d="M30.52,23.66c0.2-0.08,0.42-0.16,0.62-0.26c0.03-0.01,0.01-0.06-0.02-0.05c-0.21,0.08-0.41,0.17-0.61,0.26
			C30.48,23.62,30.49,23.67,30.52,23.66L30.52,23.66z"/>
		<path fill="#FFFFFF" d="M29.27,24.07c-0.02,0.13-0.03,0.25-0.05,0.38c0,0.04,0.05,0.04,0.06,0c0.02-0.13,0.03-0.25,0.05-0.38
			C29.33,24.03,29.28,24.03,29.27,24.07L29.27,24.07z"/>
		<path fill="#FFFFFF" d="M29.51,24.02c0.01,0.07,0.01,0.14-0.02,0.21c-0.01,0.04,0.05,0.05,0.06,0.02
			c0.02-0.08,0.02-0.16,0.01-0.24C29.56,23.97,29.51,23.99,29.51,24.02L29.51,24.02z"/>
		<path fill="#FFFFFF" d="M29.73,23.97c0.01,0.05,0.02,0.1,0.02,0.15c0.01,0.04,0.07,0.02,0.06-0.02c-0.01-0.05-0.02-0.1-0.03-0.15
			C29.78,23.92,29.72,23.94,29.73,23.97L29.73,23.97z"/>
		<path fill="#FFFFFF" d="M27.33,22.11c0.11-0.03,0.23-0.07,0.34-0.12c0.04-0.02,0.01-0.07-0.03-0.06
			c-0.11,0.04-0.23,0.09-0.33,0.14C27.29,22.08,27.3,22.12,27.33,22.11L27.33,22.11z"/>
		<path fill="#FFFFFF" d="M30.35,24.44c0.67-0.29,1.33-0.61,2-0.93c0.02-0.01,0-0.04-0.02-0.03c-0.67,0.3-1.34,0.6-2,0.93
			C30.31,24.42,30.33,24.45,30.35,24.44L30.35,24.44z"/>
		<path fill="#FFFFFF" d="M31.4,23.1c0.3,0.15,0.62,0.28,0.93,0.41c0.02,0.01,0.04-0.02,0.02-0.03c-0.31-0.14-0.62-0.29-0.94-0.42
			C31.39,23.06,31.38,23.09,31.4,23.1L31.4,23.1z"/>
		<path fill="#FFFFFF" d="M28.52,22.66c0.13-0.03,0.27-0.07,0.4-0.11c0.04-0.01,0.02-0.07-0.02-0.06c-0.13,0.05-0.26,0.09-0.39,0.14
			C28.49,22.64,28.5,22.66,28.52,22.66L28.52,22.66z"/>
		<path fill="#FFFFFF" d="M28.85,22.71c0.11-0.03,0.22-0.05,0.33-0.08c0.04-0.01,0.02-0.07-0.02-0.06c-0.11,0.03-0.22,0.07-0.33,0.1
			C28.81,22.67,28.82,22.71,28.85,22.71L28.85,22.71z"/>
		<path fill="#FFFFFF" d="M29.01,22.78c0.11-0.01,0.23-0.03,0.33-0.07c0.03-0.01,0.01-0.07-0.02-0.06c-0.1,0.04-0.2,0.07-0.31,0.08
			C28.98,22.74,28.98,22.79,29.01,22.78L29.01,22.78z"/>
		<path fill="#FFFFFF" d="M27.07,25.14c-0.26,0.12-0.51,0.29-0.69,0.52c-0.03,0.04,0.02,0.09,0.05,0.05c0.19-0.22,0.4-0.4,0.66-0.54
			C27.11,25.16,27.09,25.13,27.07,25.14L27.07,25.14z"/>
		<path fill="#FFFFFF" d="M27.39,25c-0.17,0.18-0.36,0.35-0.55,0.5c-0.03,0.03,0.02,0.08,0.05,0.05c0.19-0.16,0.37-0.33,0.53-0.52
			C27.44,25.01,27.41,24.98,27.39,25L27.39,25z"/>
		<path fill="#FFFFFF" d="M27.69,24.84c-0.17,0.2-0.36,0.38-0.57,0.53c-0.04,0.03,0,0.09,0.05,0.06c0.21-0.16,0.4-0.35,0.56-0.55
			C27.76,24.86,27.72,24.82,27.69,24.84L27.69,24.84z"/>
		<path fill="#FFFFFF" d="M25.49,25.69c-0.15,0.24-0.34,0.45-0.48,0.69c-0.02,0.03,0.02,0.07,0.05,0.04c0.19-0.2,0.33-0.46,0.47-0.7
			C25.56,25.69,25.51,25.66,25.49,25.69L25.49,25.69z"/>
		<path fill="#FFFFFF" d="M20.15,27.6c-0.23,0.26-0.46,0.55-0.59,0.88c-0.01,0.03,0.04,0.05,0.06,0.02c0.17-0.3,0.34-0.6,0.57-0.87
			C20.2,27.61,20.17,27.57,20.15,27.6L20.15,27.6z"/>
		<path fill="#FFFFFF" d="M19.72,27.73c-0.13,0.19-0.26,0.38-0.36,0.59c-0.02,0.04,0.04,0.07,0.06,0.03c0.11-0.2,0.22-0.41,0.34-0.6
			C19.78,27.73,19.74,27.71,19.72,27.73L19.72,27.73z"/>
		<path fill="#FFFFFF" d="M15.55,26.06c-0.28,0.09-0.57,0.15-0.86,0.2c-0.04,0.01-0.03,0.07,0.01,0.06c0.3-0.03,0.59-0.11,0.87-0.2
			C15.61,26.11,15.59,26.05,15.55,26.06L15.55,26.06z"/>
		<path fill="#FFFFFF" d="M15.16,25.92c-0.26,0.05-0.53,0.09-0.78,0.16c-0.04,0.01-0.03,0.08,0.02,0.07
			c0.26-0.04,0.52-0.12,0.78-0.18C15.2,25.96,15.19,25.92,15.16,25.92L15.16,25.92z"/>
		<path fill="#FFFFFF" d="M11.77,24.56c-0.16-0.02-0.34,0-0.5,0.05c-0.05,0.01-0.03,0.09,0.02,0.07c0.16-0.04,0.32-0.08,0.48-0.11
			C11.78,24.58,11.78,24.56,11.77,24.56L11.77,24.56z"/>
		<path fill="#FFFFFF" d="M11.72,24.38c-0.27,0.06-0.53,0.13-0.79,0.21c-0.05,0.01-0.03,0.09,0.02,0.07
			c0.26-0.09,0.52-0.17,0.79-0.24C11.77,24.42,11.75,24.37,11.72,24.38L11.72,24.38z"/>
		<path fill="#FFFFFF" d="M12.75,24.99c0.12,0.19,0.24,0.37,0.35,0.56c0.02,0.04,0.08,0,0.06-0.03c-0.12-0.19-0.24-0.37-0.36-0.56
			C12.79,24.92,12.73,24.95,12.75,24.99L12.75,24.99z"/>
		<path fill="#FFFFFF" d="M13.11,25.09c0.13,0.18,0.26,0.36,0.4,0.54c0.03,0.04,0.09,0,0.06-0.04c-0.14-0.17-0.28-0.35-0.42-0.52
			C13.13,25.06,13.1,25.08,13.11,25.09L13.11,25.09z"/>
		<path fill="#FFFFFF" d="M9.42,22.78c-0.52,0.26-1.06,0.48-1.61,0.69c-0.04,0.02-0.02,0.08,0.02,0.07
			c0.55-0.22,1.08-0.46,1.61-0.72C9.47,22.81,9.45,22.77,9.42,22.78L9.42,22.78z"/>
		<path fill="#FFFFFF" d="M9.42,24.25c-0.52-0.27-1.02-0.58-1.57-0.78c-0.05-0.02-0.07,0.06-0.02,0.07c0.55,0.2,1.05,0.48,1.58,0.73
			C9.43,24.29,9.44,24.26,9.42,24.25L9.42,24.25z"/>
		<path fill="#FFFFFF" d="M9.93,23.8c-0.36-0.13-0.7-0.31-1.06-0.45c-0.05-0.02-0.07,0.06-0.02,0.08c0.35,0.14,0.71,0.29,1.08,0.4
			C9.94,23.83,9.95,23.8,9.93,23.8L9.93,23.8z"/>
		<path fill="#FFFFFF" d="M13.29,22.92c-0.18-0.21-0.29-0.45-0.42-0.69c-0.02-0.03-0.08-0.01-0.06,0.03
			c0.08,0.26,0.27,0.5,0.45,0.69C13.28,22.98,13.31,22.94,13.29,22.92L13.29,22.92z"/>
		<path fill="#FFFFFF" d="M15.68,21.98c0.17-0.12,0.36-0.21,0.53-0.33c0.03-0.02,0-0.06-0.03-0.05c-0.18,0.09-0.35,0.22-0.52,0.34
			C15.65,21.96,15.66,21.99,15.68,21.98L15.68,21.98z"/>
		<path fill="#FFFFFF" d="M15.94,22.05c0.2-0.12,0.41-0.24,0.61-0.37c0.04-0.02,0-0.08-0.03-0.06c-0.2,0.12-0.41,0.25-0.61,0.37
			C15.88,22.02,15.91,22.07,15.94,22.05L15.94,22.05z"/>
		<path fill="#FFFFFF" d="M16.3,22.07c0.12-0.07,0.25-0.12,0.37-0.18c0.03-0.02,0-0.07-0.03-0.05c-0.12,0.06-0.25,0.13-0.37,0.19
			C16.24,22.03,16.27,22.08,16.3,22.07L16.3,22.07z"/>
		<path fill="#FFFFFF" d="M17.32,20.04c-0.18,0.13-0.38,0.22-0.56,0.35c-0.02,0.02-0.01,0.07,0.02,0.05
			c0.2-0.08,0.39-0.24,0.56-0.37C17.37,20.06,17.34,20.02,17.32,20.04L17.32,20.04z"/>
		<path fill="#FFFFFF" d="M17.46,20.17c-0.09,0.05-0.19,0.12-0.26,0.2c-0.02,0.03,0.01,0.06,0.04,0.04c0.08-0.07,0.15-0.15,0.25-0.2
			C17.5,20.19,17.48,20.15,17.46,20.17L17.46,20.17z"/>
		<path fill="#FFFFFF" d="M17.85,20.15c-0.12,0.09-0.24,0.17-0.38,0.25c-0.03,0.02,0,0.07,0.03,0.05c0.13-0.08,0.26-0.16,0.37-0.26
			C17.89,20.17,17.87,20.14,17.85,20.15L17.85,20.15z"/>
		<path fill="#FFFFFF" d="M18.09,20.26c-0.1,0.06-0.19,0.13-0.28,0.19c-0.03,0.02,0,0.08,0.03,0.05c0.09-0.07,0.19-0.14,0.27-0.21
			C18.13,20.27,18.11,20.24,18.09,20.26L18.09,20.26z"/>
		<path fill="#FFFFFF" d="M19.78,20.26c0.07-0.02,0.14-0.05,0.21-0.08c0.07-0.03,0.14-0.06,0.2-0.11c0.02-0.02,0-0.06-0.03-0.05
			c-0.07,0.02-0.13,0.06-0.19,0.09c-0.07,0.03-0.14,0.06-0.21,0.1C19.74,20.23,19.75,20.27,19.78,20.26L19.78,20.26z"/>
		<path fill="#FFFFFF" d="M19.58,20.14c0.16-0.09,0.34-0.18,0.49-0.3c0.03-0.02-0.01-0.07-0.04-0.05c-0.16,0.09-0.31,0.21-0.47,0.31
			C19.52,20.11,19.55,20.15,19.58,20.14L19.58,20.14z"/>
		<path fill="#FFFFFF" d="M18.94,20.07c0.27-0.1,0.55-0.18,0.81-0.31c0.03-0.01,0.01-0.06-0.02-0.05c-0.27,0.08-0.54,0.21-0.8,0.31
			C18.9,20.03,18.91,20.08,18.94,20.07L18.94,20.07z"/>
		<path fill="#FFFFFF" d="M19,19.78c0.16-0.06,0.32-0.11,0.48-0.17c0.04-0.01,0.02-0.07-0.02-0.06c-0.16,0.04-0.33,0.12-0.48,0.19
			C18.95,19.75,18.97,19.79,19,19.78L19,19.78z"/>
		<path fill="#FFFFFF" d="M22.24,20.09c0.19-0.09,0.4-0.19,0.56-0.33c0.03-0.02-0.01-0.07-0.04-0.05c-0.18,0.11-0.36,0.24-0.55,0.34
			C22.19,20.07,22.21,20.1,22.24,20.09L22.24,20.09z"/>
		<path fill="#FFFFFF" d="M22.25,20.35c0.26-0.15,0.51-0.31,0.75-0.49c0.02-0.02-0.01-0.06-0.03-0.04c-0.24,0.17-0.48,0.35-0.74,0.5
			C22.21,20.33,22.23,20.36,22.25,20.35L22.25,20.35z"/>
		<path fill="#FFFFFF" d="M20.01,18.9c0.05-0.03,0.1-0.07,0.15-0.11c0.05-0.04,0.1-0.07,0.14-0.12c0.02-0.03-0.02-0.06-0.05-0.05
			c-0.05,0.02-0.09,0.07-0.14,0.1c-0.05,0.04-0.09,0.08-0.13,0.12C19.95,18.87,19.98,18.91,20.01,18.9L20.01,18.9z"/>
		<path fill="#FFFFFF" d="M20.25,19.01c0.11-0.07,0.21-0.15,0.31-0.23c0.03-0.02-0.01-0.07-0.04-0.05c-0.1,0.08-0.21,0.15-0.31,0.24
			C20.2,18.99,20.23,19.03,20.25,19.01L20.25,19.01z"/>
		<path fill="#FFFFFF" d="M20.54,19.12c0.07-0.05,0.14-0.1,0.21-0.15c0.03-0.02-0.01-0.06-0.04-0.05c-0.07,0.05-0.14,0.1-0.21,0.16
			C20.48,19.1,20.51,19.13,20.54,19.12L20.54,19.12z"/>
		<path fill="#FFFFFF" d="M18.44,27.11c-0.14,0.19-0.27,0.41-0.34,0.63c-0.01,0.03,0.04,0.06,0.06,0.02
			c0.1-0.22,0.19-0.43,0.32-0.63C18.5,27.1,18.46,27.08,18.44,27.11L18.44,27.11z"/>
		<path fill="#FFFFFF" d="M18.52,28.38c0.48,0.27,0.98,0.53,1.49,0.73c0.03,0.01,0.06-0.04,0.03-0.06c-0.5-0.24-1-0.46-1.5-0.71
			C18.52,28.33,18.5,28.36,18.52,28.38L18.52,28.38z"/>
		<path fill="#FFFFFF" d="M21.77,28.24c-0.57,0.29-1.16,0.53-1.74,0.78c-0.05,0.02-0.01,0.09,0.04,0.07
			c0.58-0.26,1.16-0.51,1.73-0.81C21.83,28.27,21.8,28.22,21.77,28.24L21.77,28.24z"/>
		<path fill="#FFFFFF" d="M17.11,21.08c-0.4,0-0.82-0.05-1.2,0.13c-0.04,0.02-0.01,0.08,0.03,0.07c0.38-0.16,0.77-0.13,1.17-0.16
			C17.13,21.11,17.13,21.08,17.11,21.08L17.11,21.08z"/>
		<path fill="#FFFFFF" d="M16.96,21.35c-0.37-0.08-0.76-0.13-1.12,0.03c-0.03,0.02-0.01,0.08,0.03,0.06
			c0.35-0.15,0.71-0.11,1.08-0.05C16.98,21.4,16.99,21.35,16.96,21.35L16.96,21.35z"/>
		<path fill="#FFFFFF" d="M13.29,21.88c0.25,0,0.5-0.04,0.73-0.14c0.03-0.01,0.01-0.06-0.02-0.05c-0.23,0.09-0.46,0.15-0.71,0.17
			C13.28,21.86,13.28,21.88,13.29,21.88L13.29,21.88z"/>
		<path fill="#FFFFFF" d="M13.78,22.45c0.2-0.05,0.41-0.09,0.6-0.15c0.04-0.01,0.02-0.07-0.02-0.06c-0.2,0.05-0.4,0.11-0.6,0.17
			C13.74,22.41,13.75,22.45,13.78,22.45L13.78,22.45z"/>
		<path fill="#FFFFFF" d="M14.05,22.56c0.06-0.03,0.12-0.05,0.18-0.06c0.06-0.01,0.12-0.01,0.17-0.03c0.03-0.01,0.02-0.05-0.01-0.05
			c-0.12-0.01-0.26,0.05-0.38,0.1C13.99,22.53,14.02,22.57,14.05,22.56L14.05,22.56z"/>
		<path fill="#FFFFFF" d="M17.34,22.55c-0.11,0.66,0.71,0.77,1.18,0.79c0.79,0.04,1.57-0.11,2.32-0.35c1.55-0.49,3.01-1.3,4.39-2.15
			c0.12-0.07,0.01-0.26-0.11-0.18c-1.19,0.74-2.45,1.44-3.77,1.94c-0.65,0.25-1.32,0.44-2.01,0.51c-0.48,0.05-1.94,0.22-1.92-0.56
			C17.42,22.52,17.35,22.51,17.34,22.55L17.34,22.55z"/>
		<path fill="#FFFFFF" d="M17.83,21.05c-0.19-0.31-0.53-0.34-0.86-0.31c-0.18,0.02-0.36,0.04-0.54,0.07
			c-0.1,0.02-0.31,0.01-0.38,0.1c-0.04,0.04-0.02,0.1,0.03,0.12c0.08,0.03,0.2-0.02,0.28-0.03c0.15-0.03,0.3-0.05,0.46-0.07
			c0.33-0.04,0.67-0.08,0.91,0.2C17.78,21.17,17.86,21.1,17.83,21.05L17.83,21.05z"/>
		<path fill="#FFFFFF" d="M13.77,21.58c-0.16-0.02-0.35,0.02-0.51,0.04c-0.08,0.01-0.07,0.13,0.02,0.11
			c0.16-0.02,0.35-0.03,0.51-0.08C13.82,21.63,13.81,21.58,13.77,21.58L13.77,21.58z"/>
		<path fill="#FFFFFF" d="M9.65,23.49c1.01-0.31,2-0.75,2.96-1.18c0.07-0.03,0.01-0.13-0.06-0.1c-0.97,0.41-1.97,0.79-2.92,1.24
			C9.61,23.47,9.63,23.5,9.65,23.49L9.65,23.49z"/>
		<path fill="#FFFFFF" d="M17.54,20.07c0.57-0.14,1.12-0.39,1.64-0.65c0.07-0.04,0.01-0.14-0.06-0.11c-0.53,0.24-1.08,0.45-1.6,0.7
			C17.48,20.03,17.51,20.08,17.54,20.07L17.54,20.07z"/>
		<path fill="#FFFFFF" d="M20.97,20.47c0.52-0.23,1.04-0.47,1.54-0.73c0.08-0.04,0.01-0.15-0.07-0.12
			c-0.51,0.24-1.01,0.51-1.51,0.78C20.89,20.43,20.93,20.49,20.97,20.47L20.97,20.47z"/>
		<path fill="#FFFFFF" d="M15.46,22.81c0.46-0.1,0.92-0.22,1.35-0.4c0.08-0.03,0.04-0.16-0.03-0.13c-0.44,0.17-0.88,0.33-1.34,0.46
			C15.39,22.75,15.41,22.81,15.46,22.81L15.46,22.81z"/>
		<path fill="#FFFFFF" d="M13.98,24.71c0.86-0.19,1.74-0.39,2.57-0.71c0.07-0.03,0.04-0.14-0.03-0.12c-0.85,0.25-1.7,0.53-2.56,0.73
			C13.9,24.63,13.92,24.72,13.98,24.71L13.98,24.71z"/>
		<path fill="#FFFFFF" d="M18.52,20.81c0.25,0.72,1.5,0.67,2.02,0.36c0.06-0.03,0.02-0.14-0.05-0.11c-0.61,0.24-1.49,0.33-1.93-0.26
			C18.54,20.78,18.51,20.79,18.52,20.81L18.52,20.81z"/>
		<path fill="#FFFFFF" d="M23.07,23.15c0.44-0.13,0.87-0.3,1.29-0.49c0.21-0.1,0.42-0.2,0.63-0.31c0.19-0.1,0.41-0.2,0.58-0.35
			c0.04-0.04,0-0.11-0.05-0.09c-0.21,0.07-0.4,0.21-0.6,0.31c-0.19,0.1-0.39,0.2-0.59,0.3c-0.42,0.21-0.85,0.39-1.28,0.59
			C23.02,23.12,23.04,23.16,23.07,23.15L23.07,23.15z"/>
		<path fill="#FFFFFF" d="M27.35,22.38c0.14-0.01,0.27-0.04,0.41-0.06c0.13-0.02,0.28-0.03,0.41-0.09c0.06-0.03,0.02-0.11-0.03-0.11
			c-0.13-0.01-0.26,0.04-0.38,0.06c-0.14,0.03-0.28,0.06-0.42,0.1C27.28,22.29,27.29,22.38,27.35,22.38L27.35,22.38z"/>
		<path fill="#FFFFFF" d="M21.99,23.53c-0.53,0.13-1.09,0.19-1.61,0.34c-0.08,0.02-0.04,0.13,0.03,0.12
			c0.54-0.08,1.07-0.28,1.59-0.42C22.03,23.56,22.02,23.52,21.99,23.53L21.99,23.53z"/>
		<path fill="#FFFFFF" d="M17.29,24.7c-0.02,0.01-0.03,0.03-0.05,0.04c-0.01,0.01,0,0.03,0.01,0.03c0.3-0.01,0.61-0.11,0.9-0.18
			c0.32-0.08,0.66-0.16,0.96-0.28c0.07-0.03,0.05-0.14-0.03-0.12c-0.33,0.07-0.64,0.19-0.96,0.28c-0.15,0.04-0.31,0.09-0.46,0.13
			c-0.05,0.01-0.32,0.06-0.36,0.11C17.31,24.7,17.3,24.69,17.29,24.7L17.29,24.7z"/>
		<path fill="#FFFFFF" d="M20.51,22.11c1.29-0.32,2.48-0.98,3.57-1.75c0.07-0.05,0-0.17-0.07-0.12c-1.08,0.78-2.28,1.32-3.51,1.8
			C20.45,22.06,20.47,22.12,20.51,22.11L20.51,22.11z"/>
		<path fill="#FFFFFF" d="M18.89,26.06c-1.01,0.21-2.03,0.39-3.03,0.66c-0.09,0.02-0.05,0.15,0.04,0.13
			c1.01-0.18,2.02-0.45,3.02-0.69C18.98,26.14,18.95,26.04,18.89,26.06L18.89,26.06z"/>
		<path fill="#FFFFFF" d="M20.78,25.64c0.87-0.25,1.76-0.46,2.62-0.75c0.06-0.02,0.04-0.11-0.03-0.1c-0.88,0.2-1.75,0.51-2.61,0.78
			C20.72,25.58,20.74,25.65,20.78,25.64L20.78,25.64z"/>
		<path fill="#FFFFFF" d="M19.47,26.62c-0.48,0.32-0.94,0.78-1.1,1.36c-0.02,0.08,0.1,0.14,0.14,0.06c0.24-0.54,0.49-1.02,0.98-1.37
			C19.53,26.64,19.5,26.6,19.47,26.62L19.47,26.62z"/>
		<path fill="#FFFFFF" d="M20.56,28.28c0.32-0.48,0.82-0.77,1.33-1.02c0.51-0.24,1.03-0.46,1.53-0.71c0.47-0.24,0.92-0.52,1.27-0.92
			c0.31-0.36,0.49-0.8,0.65-1.24c0.03-0.08-0.1-0.12-0.13-0.04c-0.19,0.5-0.4,0.97-0.79,1.35c-0.41,0.4-0.93,0.66-1.44,0.9
			c-0.87,0.42-1.95,0.75-2.44,1.66C20.52,28.29,20.55,28.3,20.56,28.28L20.56,28.28z"/>
		<path fill="#FFFFFF" d="M25.78,24.33c0.51-0.1,1.03-0.22,1.52-0.4c0.05-0.02,0.03-0.09-0.02-0.08c-0.51,0.1-1.03,0.25-1.52,0.43
			C25.73,24.29,25.75,24.33,25.78,24.33L25.78,24.33z"/>
		<path fill="#FFFFFF" d="M28.88,23.44c0.21,0.05,0.46-0.05,0.66-0.1c0.3-0.07,0.6-0.14,0.9-0.21c0.1-0.03,0.06-0.19-0.04-0.16
			c-0.25,0.06-0.5,0.13-0.75,0.2c-0.23,0.06-0.51,0.2-0.76,0.21C28.85,23.37,28.84,23.43,28.88,23.44L28.88,23.44z"/>
		<path fill="#FFFFFF" d="M28.92,23.91c-0.03,0.28-0.08,0.53-0.19,0.79c-0.04,0.09,0.11,0.13,0.15,0.04
			c0.1-0.26,0.16-0.55,0.13-0.83C29.02,23.85,28.93,23.85,28.92,23.91L28.92,23.91z"/>
		<path fill="#FFFFFF" d="M7.05,23.55c0.4,0.24,0.84,0.43,1.26,0.63c1.01,0.5,2.04,0.97,3.07,1.45c2.31,1.07,4.63,2.14,6.93,3.23
			c0.53,0.25,1.06,0.49,1.58,0.73c0.23,0.1,0.42-0.23,0.2-0.34c-1.46-0.67-2.94-1.33-4.4-1.99c-2.32-1.05-4.63-2.13-6.97-3.15
			c-0.53-0.23-1.07-0.49-1.62-0.68C7.03,23.41,6.99,23.52,7.05,23.55L7.05,23.55z"/>
		<path fill="#FFFFFF" d="M32.9,23.44c-0.44,0.15-0.87,0.36-1.3,0.54c-1.04,0.44-2.07,0.92-3.11,1.39
			c-2.33,1.06-4.65,2.12-6.98,3.16c-0.54,0.24-1.07,0.49-1.61,0.73c-0.23,0.1-0.03,0.44,0.2,0.34c1.46-0.67,2.9-1.35,4.35-2.03
			c2.31-1.07,4.63-2.13,6.93-3.23c0.52-0.25,1.06-0.49,1.56-0.78C33.01,23.52,32.97,23.41,32.9,23.44L32.9,23.44z"/>
		<path fill="#FFFFFF" d="M17.81,18.87c0.78-0.34,1.57-0.69,2.35-1.04c0.23-0.1,0.03-0.44-0.2-0.34c-0.78,0.35-1.56,0.71-2.33,1.06
			C17.42,18.65,17.6,18.96,17.81,18.87L17.81,18.87z"/>
		<path fill="#FFFFFF" d="M7.1,23.57c0.22-0.05,0.43-0.16,0.63-0.24c0.5-0.2,1-0.42,1.49-0.63c1.12-0.48,2.23-0.99,3.35-1.48
			c0.26-0.11,0.53-0.21,0.78-0.33c0.22-0.1,0.03-0.43-0.19-0.33c-0.7,0.31-1.38,0.65-2.08,0.97c-1.1,0.51-2.22,0.99-3.3,1.54
			c-0.24,0.12-0.52,0.23-0.73,0.39C6.99,23.49,7.02,23.58,7.1,23.57L7.1,23.57z"/>
		<path fill="#FFFFFF" d="M32.95,23.45c-0.4-0.24-0.84-0.42-1.26-0.63c-1-0.49-2.02-0.95-3.03-1.42c-2.3-1.06-4.6-2.11-6.9-3.18
			c-0.53-0.25-1.06-0.49-1.59-0.73c-0.23-0.1-0.43,0.23-0.2,0.34c1.46,0.66,2.93,1.31,4.39,1.97c2.31,1.04,4.61,2.09,6.93,3.1
			c0.53,0.23,1.06,0.48,1.61,0.66C32.97,23.59,33.01,23.49,32.95,23.45L32.95,23.45z"/>
		<path fill="#FFFFFF" d="M8.61,23.55c0.35,0.21,0.74,0.37,1.1,0.56c0.89,0.44,1.79,0.84,2.69,1.26c2.03,0.93,4.06,1.86,6.09,2.81
			c0.46,0.22,0.93,0.43,1.4,0.64c0.23,0.1,0.43-0.23,0.2-0.34c-1.29-0.58-2.58-1.15-3.87-1.73c-2.05-0.92-4.08-1.85-6.14-2.74
			c-0.46-0.2-0.93-0.42-1.41-0.57C8.59,23.42,8.55,23.52,8.61,23.55L8.61,23.55z"/>
		<path fill="#FFFFFF" d="M31.39,23.44c-0.39,0.13-0.77,0.31-1.15,0.47c-0.92,0.38-1.83,0.79-2.74,1.2
			c-2.05,0.92-4.11,1.83-6.17,2.74c-0.47,0.21-0.95,0.42-1.42,0.63c-0.23,0.1-0.03,0.44,0.2,0.34c1.28-0.58,2.56-1.18,3.84-1.76
			c2.04-0.93,4.09-1.85,6.12-2.81c0.46-0.22,0.93-0.42,1.37-0.68C31.5,23.52,31.46,23.42,31.39,23.44L31.39,23.44z"/>
		<path fill="#FFFFFF" d="M16.96,20.02c1.06-0.47,2.13-0.94,3.19-1.42c0.23-0.1,0.03-0.44-0.2-0.34c-1.06,0.48-2.12,0.96-3.17,1.44
			C16.56,19.81,16.75,20.12,16.96,20.02L16.96,20.02z"/>
		<path fill="#FFFFFF" d="M8.66,23.57c0.18-0.03,0.35-0.12,0.52-0.18c0.41-0.15,0.82-0.32,1.22-0.49c0.91-0.38,1.82-0.78,2.73-1.17
			c0.21-0.09,0.43-0.17,0.64-0.26c0.23-0.1,0.03-0.43-0.19-0.33c-0.57,0.25-1.13,0.52-1.7,0.78c-0.9,0.4-1.81,0.78-2.69,1.23
			c-0.19,0.1-0.42,0.18-0.58,0.31C8.54,23.51,8.61,23.58,8.66,23.57L8.66,23.57z"/>
		<path fill="#FFFFFF" d="M31.44,23.45c-0.35-0.21-0.74-0.37-1.11-0.55c-0.89-0.44-1.8-0.84-2.7-1.24
			c-2.02-0.92-4.05-1.83-6.07-2.75c-0.47-0.21-0.94-0.42-1.4-0.63c-0.23-0.1-0.43,0.23-0.2,0.34c1.28,0.57,2.58,1.13,3.87,1.7
			c2.04,0.9,4.08,1.82,6.14,2.7c0.46,0.2,0.94,0.42,1.42,0.57C31.46,23.59,31.5,23.49,31.44,23.45L31.44,23.45z"/>
		<path fill="#FFFFFF" d="M16.41,20.66c0.47,0.05,0.92-0.21,1.38,0.03c0.19,0.1,0.22,0.27,0.29,0.45c0.06,0.14,0.14,0.27,0.25,0.38
			c0.23,0.23,0.55,0.35,0.87,0.39c0.74,0.09,1.53-0.18,2.2-0.47c0.74-0.33,1.43-0.76,2.1-1.22c0.2-0.14,0.02-0.45-0.19-0.33
			c-0.68,0.41-1.35,0.86-2.08,1.18c-0.67,0.3-1.62,0.67-2.35,0.39c-0.17-0.07-0.33-0.18-0.44-0.33c-0.1-0.14-0.12-0.32-0.22-0.47
			c-0.14-0.21-0.4-0.3-0.64-0.34c-0.37-0.05-0.9,0.01-1.23,0.2C16.31,20.57,16.35,20.65,16.41,20.66L16.41,20.66z"/>
		<path fill="#FFFFFF" d="M12,22.2c0.66,0.2,1.4,0.16,2.05-0.04c0.18-0.06,0.1-0.35-0.08-0.29c-0.65,0.21-1.28,0.24-1.95,0.18
			C11.93,22.04,11.92,22.18,12,22.2L12,22.2z"/>
		<path fill="#FFFFFF" d="M15.63,21.88c0.23-0.11,0.52-0.25,0.78-0.15c0.22,0.08,0.23,0.25,0.23,0.45c0.01,0.31,0,0.64,0.14,0.92
			c0.3,0.58,1.14,0.76,1.73,0.8c1.63,0.11,3.32-0.51,4.78-1.17c0.94-0.43,1.84-0.94,2.72-1.49c0.2-0.12,0.01-0.44-0.18-0.31
			c-1.55,0.98-3.2,1.83-4.98,2.32c-0.76,0.21-1.54,0.39-2.33,0.34c-0.37-0.02-0.75-0.09-1.08-0.28c-0.38-0.21-0.49-0.5-0.51-0.92
			c-0.01-0.28,0.02-0.59-0.22-0.79c-0.37-0.29-0.81-0.08-1.16,0.13C15.46,21.79,15.54,21.92,15.63,21.88L15.63,21.88z"/>
		<path fill="#FFFFFF" d="M10.74,24.51c1.09-0.34,2.19-0.67,3.3-0.95c0.1-0.02,0.13-0.14,0.09-0.22c-0.21-0.41-0.46-0.8-0.76-1.14
			c-0.14-0.15-0.35,0.07-0.22,0.22c0.28,0.33,0.52,0.68,0.73,1.07c0.03-0.07,0.06-0.15,0.09-0.22c-1.11,0.29-2.21,0.63-3.28,1.03
			C10.55,24.35,10.6,24.55,10.74,24.51L10.74,24.51z"/>
		<path fill="#FFFFFF" d="M15.08,23.22c0.01-0.1-0.06-0.21-0.1-0.29c-0.05-0.09-0.08-0.23-0.19-0.25c-0.05-0.01-0.09,0-0.11,0.05
			c-0.07,0.12,0.03,0.22,0.1,0.31c0.06,0.08,0.13,0.18,0.21,0.24C15.03,23.3,15.08,23.26,15.08,23.22L15.08,23.22z"/>
		<path fill="#FFFFFF" d="M15.07,23.31c0.17-0.02,0.34-0.05,0.51-0.08c0.18-0.03,0.37-0.04,0.54-0.11c0.12-0.05,0.12-0.27-0.03-0.26
			c-0.34,0.03-0.71,0.16-1.03,0.28C14.97,23.18,14.97,23.32,15.07,23.31L15.07,23.31z"/>
		<path fill="#FFFFFF" d="M13.16,24.44c0.54-0.02,1.12-0.19,1.65-0.31c0.57-0.13,1.13-0.29,1.68-0.48c0.18-0.06,0.1-0.35-0.08-0.29
			c-0.55,0.2-1.11,0.35-1.67,0.51c-0.52,0.14-1.12,0.24-1.6,0.48C13.09,24.36,13.11,24.44,13.16,24.44L13.16,24.44z"/>
		<path fill="#FFFFFF" d="M13.11,24.42c0.09,0.32,0.31,0.62,0.49,0.89c0.1,0.15,0.19,0.3,0.29,0.45c0.08,0.12,0.14,0.27,0.28,0.34
			c0.07,0.04,0.17-0.01,0.17-0.1c-0.01-0.28-0.34-0.62-0.5-0.84c-0.2-0.27-0.39-0.58-0.64-0.81C13.16,24.34,13.1,24.37,13.11,24.42
			L13.11,24.42z"/>
		<path fill="#FFFFFF" d="M12.24,24.54c-0.1,0.01-0.21,0.03-0.31,0.06c-0.12,0.03-0.25,0.09-0.37,0.07
			c-0.15-0.02-0.11,0.27,0.05,0.19c0.09-0.05,0.2-0.08,0.3-0.13c0.11-0.05,0.22-0.11,0.34-0.14C12.27,24.58,12.27,24.53,12.24,24.54
			L12.24,24.54z"/>
		<path fill="#FFFFFF" d="M12.19,24.58c0.03,0.16,0.11,0.31,0.19,0.45c0.06,0.12,0.14,0.33,0.27,0.4c0.06,0.03,0.15-0.01,0.15-0.08
			c-0.01-0.14-0.16-0.28-0.24-0.39c-0.09-0.14-0.19-0.27-0.29-0.41C12.24,24.51,12.18,24.53,12.19,24.58L12.19,24.58z"/>
		<path fill="#FFFFFF" d="M14.19,26.01c0.93-0.24,1.87-0.44,2.8-0.67c0.93-0.23,1.87-0.44,2.81-0.61c0.1-0.02,0.12-0.13,0.08-0.21
			c-0.13-0.3-0.41-0.47-0.6-0.72c-0.12-0.15-0.33,0.06-0.21,0.21c0.18,0.23,0.45,0.38,0.57,0.66c0.03-0.07,0.06-0.14,0.08-0.21
			c-0.94,0.18-1.87,0.41-2.8,0.65c-0.93,0.25-1.83,0.56-2.74,0.86C14.15,25.98,14.17,26.02,14.19,26.01L14.19,26.01z"/>
		<path fill="#FFFFFF" d="M20.01,23.76c0.09,0.27,0.38,0.44,0.54,0.67c0.04,0.06,0.11,0.09,0.18,0.07c1.97-0.52,3.96-0.99,5.94-1.47
			c0.21-0.05,0.12-0.37-0.09-0.32c-1.98,0.48-3.97,0.96-5.94,1.48c0.06,0.02,0.12,0.05,0.18,0.07c-0.17-0.24-0.45-0.41-0.67-0.6
			C20.1,23.63,19.98,23.67,20.01,23.76L20.01,23.76z"/>
		<path fill="#FFFFFF" d="M26.79,22.84c-0.21-0.35-0.6-0.63-0.91-0.89c-0.19-0.16-0.42-0.39-0.65-0.49
			c-0.17-0.07-0.26,0.17-0.16,0.28c0.16,0.18,0.43,0.32,0.62,0.46c0.34,0.24,0.65,0.52,0.99,0.76
			C26.74,23.01,26.83,22.91,26.79,22.84L26.79,22.84z"/>
		<path fill="#FFFFFF" d="M25.87,21.25c0.26,0.29,0.55,0.55,0.84,0.82c0.19,0.17,0.37,0.34,0.56,0.5c0.09,0.08,0.2,0.2,0.34,0.17
			c0.04-0.01,0.07-0.05,0.07-0.1c0.01-0.13-0.13-0.22-0.22-0.29c-0.2-0.17-0.41-0.33-0.61-0.5c-0.3-0.24-0.6-0.48-0.92-0.69
			C25.89,21.13,25.83,21.21,25.87,21.25L25.87,21.25z"/>
		<path fill="#FFFFFF" d="M27.54,22.7c0.15,0.07,0.41-0.04,0.56-0.07c0.14-0.04,0.29-0.08,0.43-0.11c0.08-0.02,0.22-0.04,0.27-0.11
			c0.07-0.09,0.05-0.22-0.07-0.25c-0.09-0.03-0.2,0.03-0.29,0.07c-0.14,0.05-0.28,0.11-0.42,0.16c-0.14,0.06-0.42,0.12-0.51,0.27
			C27.51,22.66,27.52,22.69,27.54,22.7L27.54,22.7z"/>
		<path fill="#FFFFFF" d="M16.07,22.96c0.01,0.11,0.07,0.21,0.13,0.3c0.06,0.1,0.12,0.21,0.2,0.3c0.1,0.12,0.3-0.04,0.21-0.16
			c-0.06-0.09-0.14-0.16-0.22-0.24c-0.07-0.08-0.13-0.17-0.21-0.24C16.14,22.88,16.06,22.9,16.07,22.96L16.07,22.96z"/>
		<path fill="#FFFFFF" d="M15.07,26.48c0.37-0.02,0.75-0.13,1.11-0.2c0.36-0.08,0.72-0.16,1.08-0.25c0.77-0.18,1.54-0.37,2.3-0.56
			c1.52-0.37,3.04-0.74,4.55-1.11c0.18-0.05,0.11-0.33-0.08-0.28c-1.52,0.37-3.03,0.75-4.55,1.12c-0.75,0.19-1.5,0.37-2.25,0.56
			c-0.37,0.1-0.75,0.19-1.12,0.3c-0.35,0.1-0.74,0.18-1.07,0.33C15,26.42,15.02,26.48,15.07,26.48L15.07,26.48z"/>
		<path fill="#FFFFFF" d="M23.99,24.18c0.23,0.55-0.81,1.01-1.18,1.2c-0.53,0.26-1.1,0.47-1.64,0.72c-0.9,0.41-1.86,1-2.21,1.98
			c-0.06,0.17,0.21,0.29,0.3,0.13c0.57-1.09,1.63-1.61,2.72-2.09c0.57-0.25,1.14-0.51,1.64-0.88c0.33-0.24,0.82-0.68,0.51-1.12
			C24.09,24.05,23.95,24.09,23.99,24.18L23.99,24.18z"/>
		<path fill="#FFFFFF" d="M24.82,24.07c-0.18,0.55-0.45,1.01-0.9,1.38c-0.47,0.39-1.01,0.65-1.56,0.91
			c-0.5,0.23-1.02,0.44-1.45,0.78c-0.43,0.34-0.81,0.74-1.07,1.23c-0.04,0.08,0.07,0.14,0.12,0.07c0.63-1.1,1.93-1.51,3-2.04
			c0.88-0.43,2-1.2,1.99-2.31C24.94,24.02,24.84,24,24.82,24.07L24.82,24.07z"/>
		<path fill="#FFFFFF" d="M24.92,24.13c0.46-0.04,0.92-0.19,1.37-0.3c0.48-0.12,0.96-0.22,1.45-0.31c-0.07-0.05-0.13-0.1-0.2-0.15
			c0.06,0.59-0.19,1.07-0.66,1.42c-0.21,0.15-0.43,0.28-0.62,0.46c-0.21,0.2-0.4,0.42-0.58,0.65c-0.12,0.16,0.1,0.33,0.22,0.17
			c0.2-0.3,0.42-0.55,0.72-0.75c0.25-0.16,0.52-0.29,0.74-0.5c0.38-0.36,0.54-0.93,0.49-1.44c-0.01-0.11-0.09-0.17-0.2-0.15
			c-0.49,0.09-0.96,0.21-1.44,0.34c-0.44,0.13-0.92,0.25-1.33,0.46C24.83,24.04,24.86,24.13,24.92,24.13L24.92,24.13z"/>
		<path fill="#FFFFFF" d="M28.41,23.11c0,0.35,0.02,0.67-0.1,1.01c-0.05,0.16-0.13,0.3-0.21,0.44c-0.09,0.15-0.23,0.27-0.32,0.42
			c-0.08,0.12,0.07,0.26,0.2,0.2c0.32-0.18,0.53-0.63,0.61-0.98c0.09-0.36,0.11-0.79-0.06-1.12C28.51,23.02,28.41,23.05,28.41,23.11
			L28.41,23.11z"/>
		<path fill="#FFFFFF" d="M28.53,23.19c0.42-0.03,0.78-0.14,1.16-0.31c0.09-0.04,0.02-0.18-0.07-0.16
			c-0.38,0.08-0.75,0.17-1.11,0.33C28.44,23.08,28.44,23.2,28.53,23.19L28.53,23.19z"/>
		<path fill="#FFFFFF" d="M18.77,19.26c0.28,0.19,0.59,0.34,0.87,0.53c0.13,0.08,0.26,0.17,0.38,0.26c0.1,0.08,0.21,0.18,0.33,0.22
			c0.25,0.08,0.54-0.14,0.75-0.24c0.33-0.16,0.67-0.32,1-0.48c0.17-0.08,0.02-0.33-0.15-0.25c-0.27,0.13-0.55,0.26-0.82,0.4
			c-0.14,0.07-0.27,0.13-0.41,0.2c-0.09,0.05-0.14,0.07-0.25,0.07c-0.14,0.01-0.14-0.01-0.25-0.09c-0.42-0.29-0.91-0.6-1.42-0.72
			C18.75,19.14,18.71,19.22,18.77,19.26L18.77,19.26z"/>
		<path fill="#FFFFFF" d="M19.53,18.89c0.25,0.25,0.58,0.55,0.92,0.67c0.11,0.04,0.18,0.02,0.28-0.03c0.21-0.1,0.41-0.24,0.62-0.34
			c0.14-0.07,0.01-0.3-0.12-0.21c-0.14,0.09-0.29,0.18-0.44,0.26c-0.19,0.11-0.25,0.12-0.44,0.02c-0.26-0.14-0.52-0.29-0.77-0.44
			C19.54,18.78,19.49,18.85,19.53,18.89L19.53,18.89z"/>
	</g>
	<path fill="#E9E9E8" d="M19.91,14.14c0.51-0.23,1.14-0.14,1.55,0.24c-0.13,0.13-0.26,0.26-0.39,0.39
		c-0.41-0.41-1.18-0.21-1.38,0.33c-0.25,0.53,0.17,1.23,0.76,1.24c0.39,0.05,0.78-0.21,0.86-0.6c-0.27,0-0.54,0-0.81,0
		c-0.01-0.17-0.01-0.33-0.01-0.5c0.45,0.01,0.92-0.03,1.36,0.02c0.03,0.33,0.01,0.68-0.17,0.97c-0.28,0.52-0.94,0.75-1.5,0.62
		c-0.69-0.14-1.21-0.85-1.11-1.55C19.13,14.79,19.46,14.35,19.91,14.14z"/>
</g>
</svg>
