<?xml version="1.0" encoding="utf-8"?>
<!-- Generator: Adobe Illustrator 24.1.2, SVG Export Plug-In . SVG Version: 6.00 Build 0)  -->
<svg version="1.1" id="Layer_1" xmlns="http://www.w3.org/2000/svg" xmlns:xlink="http://www.w3.org/1999/xlink" x="0px" y="0px"
	 viewBox="0 0 100 74.2" style="enable-background:new 0 0 100 74.2;" xml:space="preserve">
<style type="text/css">
	.st0{fill:#FFFFFF;}
	.st1{fill:#F8CD00;}
	.st2{fill:#014B93;}
	.st3{fill:#BD1823;}
	.st4{fill:#B3B3B4;}
	.st5{fill:#3C3C3B;}
	.st6{fill:#DDDB01;}
	.st7{fill:#B3B2B3;}
	.st8{fill:none;stroke:#000000;stroke-miterlimit:10;}
</style>
<g>
	<path class="st0" d="M78.3,52.2l-1.1-16.8c-0.1-1.3-1.1-2.2-2.3-2.2l-3.2,0.2c-0.5,0-1,0.3-1.3,0.6c-0.4-0.3-0.9-0.5-1.4-0.4
		l-3.2,0.2c-0.5,0-1,0.3-1.4,0.7c-0.4-0.3-0.9-0.5-1.5-0.4l-2.9,0.3c-0.5,0.1-1,0.3-1.4,0.7c-0.4-0.4-1-0.6-1.6-0.6L54,34.8
		c-0.4,0-0.7,0.2-1,0.4c-0.3-0.2-0.7-0.3-1.1-0.2l-8.2,0.6c-0.5,0-1,0.3-1.4,0.7c-0.4-0.4-0.9-0.5-1.5-0.5L37.7,36
		c-1,0.1-1.8,0.8-2,1.9l-1.2,6.4l-2-6.2c-0.3-1-1.2-1.6-2.2-1.5l-3.2,0.2c-1.2,0.1-2.1,1.2-2,2.5l1.4,20.9c0,0.6,0.3,1.2,0.7,1.6
		c0.4,0.4,0.9,0.6,1.4,0.6c0.1,0,0.1,0,0.2,0l3.1-0.2c0.5,0,1-0.3,1.4-0.7c0.4,0.3,0.9,0.5,1.4,0.4l2.1-0.2c0.5,0,1-0.3,1.3-0.6
		c0.4,0.3,0.9,0.5,1.4,0.4l3-0.2c0.5,0,1-0.3,1.4-0.7c0.4,0.4,0.9,0.5,1.5,0.5l8.2-0.6c0.4,0,0.7-0.2,1-0.4c0.3,0.2,0.7,0.3,1.1,0.2
		l3-0.2c0.5,0,1-0.3,1.4-0.7c0.4,0.3,0.9,0.5,1.5,0.5l3.2-0.2c0.6,0,1.1-0.3,1.5-0.8c0.3-0.3,0.4-0.7,0.5-1.2
		c0.1,0.1,0.3,0.3,0.4,0.4c1.2,1,2.9,1.5,4.9,1.3C76.3,59.1,78.6,56.4,78.3,52.2z"/>
	<g>
		<path class="st1" d="M35.4,53l3-14.6l3.4-0.2L43.2,59L40,59.2l-0.8-11.7L37,59.5l-2.3,0.2l-3.8-11.5l0.8,11.7l-3.3,0.2l-1.5-20.9
			l3.4-0.2L35.4,53z"/>
		<path class="st1" d="M43.4,37.9l8.9-0.6l0.2,3L47,40.6l0.4,6l4.7-0.3l0.2,3l-4.7,0.3l0.4,6l5.5-0.4l0.2,3l-8.9,0.6L43.4,37.9z"/>
		<path class="st2" d="M53.9,37.1l3.4-0.2l4.1,11.9l-0.9-12.1l3.2-0.3l1.5,20.9l-3.4,0.2l-4-11.5l0.8,11.7L55.4,58L53.9,37.1z"/>
		<path class="st3" d="M76.4,52.3c0.2,2.9-1.3,4.5-4.6,4.7c-3.3,0.2-5-1.1-5.2-4l-1.2-16.8l3.4-0.2L70,52.8c0.1,0.9,0.6,1.4,1.6,1.3
			c1-0.1,1.5-0.6,1.4-1.5l-1.2-16.8l3.4-0.2L76.4,52.3z"/>
	</g>
</g>
<g>
	<path class="st0" d="M86.2,27l-3.8-5.3c2-1.3,2.1-3.1,1.9-4.2L84,14.8c-0.3-2.7-2.8-4.3-6.6-4.3c-0.5,0-1.1,0-1.7,0.1v0l-6.3,0.8
		c-0.8,0.1-1.4,0.4-1.8,0.8c-0.5,0.5-0.7,1.1-0.6,1.8l2.1,15.9c0.2,1.3,1.3,2.3,2.6,2.3c0.1,0,0.2,0,0.3,0l3.8-0.5
		c1.3-0.2,2.2-1.2,2.4-2.4l0.2,0.4l0,0l0,0c0.5,0.8,1.4,1.3,2.3,1.3c0.1,0,0.2,0,0.3,0l3.7-0.5c0.7-0.1,1.3-0.6,1.6-1.3
		C86.7,28.5,86.6,27.6,86.2,27z"/>
	<path class="st4" d="M84.6,28.9l-3.9-5.5c1.9-1.2,2.2-2.9,2-4.1l-0.3-2.7c-0.4-3.1-3.6-4.6-8.3-4c0,0-0.1,0-0.2,0h0h0l-6.3,0.8
		c-1.1,0.1-1.8,1.1-1.7,2.3l2.1,15.9c0.2,1.3,1.3,2.3,2.6,2.1l3.3-0.4c1.4-0.2,2.4-1.5,2.2-3l-0.2-1.2l1.3,2.2
		c0.5,0.9,1.4,1.3,2.4,1.2l3.7-0.5c0.7-0.1,1.2-0.5,1.5-1.1C85.1,30.2,85.1,29.5,84.6,28.9z M74.7,17.7l0.3,2.5c0,0,0,0-0.1,0
		c0,0-0.1,0-0.2,0l-0.3-2.5C74.6,17.7,74.7,17.7,74.7,17.7z"/>
	<g>
		<g>
			<path class="st5" d="M71.7,31.5c-1,0-1.8-0.8-1.9-1.8l-2.1-15.9c-0.1-0.5,0.1-0.9,0.4-1.3c0.3-0.3,0.8-0.5,1.4-0.6l6.3-0.8v0
				c0.6-0.1,1.1-0.1,1.6-0.1c3.4,0,5.6,1.4,5.9,3.8l0.3,2.7c0.2,1.2-0.1,2.9-2.2,3.9l4.2,5.9c0.3,0.5,0.4,1.1,0.2,1.6
				c-0.2,0.5-0.6,0.8-1.1,0.9l-3.7,0.5c-0.1,0-0.2,0-0.2,0c-0.7,0-1.3-0.4-1.7-1l0,0l-1.7-3.4l0.3,2.6c0.1,0.6-0.1,1.2-0.4,1.6
				c-0.3,0.5-0.8,0.8-1.4,0.9l-3.8,0.5C71.9,31.5,71.8,31.5,71.7,31.5z M76.3,18.9C76.3,18.9,76.3,18.9,76.3,18.9
				c0.1,0,0.2-0.1,0.2-0.1c0.4-0.1,0.3-0.3,0.3-0.4l-0.3-2.7c0-0.2,0-0.3-0.5-0.3c-0.1,0-0.1,0-0.2,0L76.3,18.9z"/>
			<path class="st0" d="M77.4,11.8c2.8,0,5,1,5.3,3.2l0.3,2.7c0.2,1.6-0.6,2.9-2.6,3.6l4.6,6.5c0.4,0.6,0.1,1.4-0.5,1.5l-3.7,0.5
				c-0.1,0-0.1,0-0.2,0c-0.5,0-0.9-0.3-1.2-0.7l-3.2-6.4l-0.2,0l0.8,5.9c0.1,0.9-0.4,1.7-1.3,1.8l-3.8,0.5c-0.1,0-0.1,0-0.2,0
				c-0.6,0-1.2-0.5-1.3-1.2l-2.1-15.9c-0.1-0.5,0.3-1,1.3-1.1l6.3-0.8c-0.3,0-0.3,0.1-0.3,0.1c0,0,0,0,0,0
				C76.3,11.8,76.8,11.8,77.4,11.8 M75.7,19.6l0.6-0.1c0.5-0.1,0.3-0.1,0.4-0.1c0.6-0.2,0.8-0.6,0.7-1l-0.3-2.7
				c-0.1-0.6-0.4-0.9-1.1-0.9c-0.1,0-0.2,0-0.4,0l-0.5,0.1L75.7,19.6 M77.4,10.5c-0.5,0-1.1,0-1.7,0.1v0l-6.3,0.8
				c-0.8,0.1-1.4,0.4-1.8,0.8c-0.5,0.5-0.7,1.1-0.6,1.8l2.1,15.9c0.2,1.3,1.3,2.3,2.6,2.3c0.1,0,0.2,0,0.3,0l3.8-0.5
				c1.3-0.2,2.2-1.2,2.4-2.4l0.2,0.4l0,0l0,0c0.5,0.8,1.4,1.3,2.3,1.3c0.1,0,0.2,0,0.3,0l3.7-0.5c0.7-0.1,1.3-0.6,1.6-1.3
				c0.3-0.7,0.2-1.6-0.2-2.2l-3.8-5.3c2-1.3,2.1-3.1,1.9-4.2L84,14.8C83.6,12.1,81.2,10.5,77.4,10.5L77.4,10.5z"/>
		</g>
	</g>
	<g>
		<path class="st6" d="M68.8,14.6c-0.1-0.4,0.2-0.7,0.6-0.8l5.7-0.7c0.1,0,0.2,0,0.2,0c3.3-0.4,6,0.4,6.3,2.9l0.3,2.5
			c0.2,1.5-0.6,2.6-2.3,3.3l4.3,6.3c0.3,0.4,0,1-0.5,1l-3.7,0.5c-0.4,0-0.8-0.1-0.9-0.5l-3.5-6l-0.2,0l0.8,6c0.1,0.5-0.3,1-0.8,1
			l-3.5,0.5c-0.5,0.1-0.9-0.3-1-0.8L68.8,14.6z M74.3,15.9l0.6,4.3l0.5-0.1c0.4-0.1,0.7-0.1,0.9-0.2c0.5-0.2,0.7-0.5,0.7-1l-0.3-2.5
			c-0.1-0.6-0.5-0.9-1.3-0.8L74.3,15.9z"/>
	</g>
	<g>
		<path class="st0" d="M69.1,15.3c-0.1-0.5,0.3-0.9,0.8-1l4.7-0.6c0.1,0,0.2,0,0.2,0c2.9-0.4,5.2,0.5,5.5,2.8l0.3,2.4
			c0.2,1.5-0.5,2.5-1.9,3.1l3.8,6c0.3,0.5,0,1-0.5,1.1L79,29.5c-0.4,0-0.7-0.1-0.9-0.5L75,23.3l-0.1,0l0.8,5.9
			c0.1,0.4-0.3,0.8-0.7,0.9l-3.2,0.4c-0.3,0-0.7-0.2-0.7-0.6L69.1,15.3z M74,16.4l0.5,4.1l0.4-0.1c0.4,0,0.6-0.1,0.8-0.1
			c0.4-0.2,0.6-0.5,0.6-0.9L76,17.1c-0.1-0.6-0.5-0.8-1.2-0.8L74,16.4z"/>
	</g>
</g>
<g>
	<path class="st4" d="M31.9,26l0.1-5.4c0-0.6-0.2-1.2-0.6-1.6s-1-0.7-1.6-0.7l-2.5,0c0,0,0,0-0.1,0l-0.1,0c-0.2,0-0.5,0-0.8,0
		c-0.7,0-1.3,0.2-1.7,0.5c-0.4-0.2-0.7-0.3-1.1-0.3l-3.9-0.1c0,0,0,0,0,0c-0.6,0-1.2,0.2-1.6,0.7c-0.4,0.4-0.7,1-0.7,1.6l0.1,8.8
		c0,0.2,0,0.4,0,0.5c0,0.4,0,0.9,0,1.3c0.1,2.5,1.4,4.7,3.4,6c1.3,0.8,2.8,1.3,4.3,1.3c1,0,2-0.2,2.8-0.6c2-1,3.4-3.1,3.9-5.8
		c0.3-1.5,0.2-3,0.2-4.5C31.9,27,31.9,26.5,31.9,26z"/>
	<g>
		<g>
			<path class="st0" d="M31.9,24l0.1-5.4c0-0.3-0.1-0.6-0.3-0.8c-0.2-0.2-0.5-0.3-0.8-0.3l-2.5,0c0,0-0.1,0-0.2,0
				c-0.2,0-0.5,0-0.7,0c-1.6,0-1.7,1.1-1.7,1.3l0,0.4c0-0.1,0-0.1,0-0.2c0-0.9-0.4-1.4-1.1-1.4l-3.9-0.1c-0.3,0-0.6,0.1-0.8,0.3
				s-0.3,0.5-0.3,0.8l0.1,8.8c0,0.2,0,0.4,0,0.5c0,0.4,0,0.9,0,1.3c0.1,2.1,1.2,4,2.9,5.1c1.1,0.7,2.4,1.1,3.6,1.1
				c0.8,0,1.6-0.2,2.3-0.5c1.7-0.8,2.9-2.7,3.3-5c0.2-1.4,0.2-2.9,0.2-4.3C31.9,25,31.9,24.5,31.9,24z"/>
			<path class="st0" d="M33.1,24l0.1-5.4c0-0.6-0.2-1.2-0.7-1.6c-0.4-0.4-1-0.7-1.6-0.7l-2.5,0c0,0,0,0-0.1,0l-0.1,0
				c-0.2,0-0.5,0-0.8,0c-0.7,0-1.3,0.2-1.7,0.5c-0.4-0.2-0.7-0.3-1.1-0.3l-3.9-0.1c0,0,0,0,0,0c-0.6,0-1.2,0.2-1.6,0.7
				c-0.4,0.4-0.7,1-0.7,1.6l0.1,8.8c0,0.2,0,0.4,0,0.5c0,0.4,0,0.9,0,1.3c0.1,2.5,1.4,4.7,3.4,6c1.3,0.8,2.8,1.3,4.3,1.3
				c1,0,2-0.2,2.8-0.6c2-1,3.4-3.1,3.9-5.8c0.3-1.5,0.2-3,0.2-4.5C33.1,25,33.1,24.5,33.1,24z M30.8,25.6c0,1.4,0,2.8-0.2,4.1
				c-0.3,2-1.3,3.5-2.6,4.2c-0.5,0.3-1.1,0.4-1.8,0.4c-1,0-2.1-0.3-3-0.9c-1.4-0.9-2.3-2.5-2.4-4.2c0-0.4,0-0.8,0-1.2
				c0-0.2,0-0.4,0-0.5l-0.1-8.8l3.9,0.1c0,0.1,0,0.2,0,0.3l0,0.2c0,0.6,0.5,1.1,1.1,1.1h0c0.6,0,1.1-0.5,1.1-1.1l0-0.4
				c0-0.1,0.2-0.2,0.6-0.2c0.2,0,0.4,0,0.6,0h0c0.1,0,0.2,0,0.2,0c0,0,0,0,0,0l2.5,0L30.8,24C30.8,24.5,30.8,25,30.8,25.6z"/>
		</g>
		<g>
			<path class="st0" d="M30.7,24.3l0.1-5.4c0-0.1,0-0.2-0.1-0.3s-0.2-0.1-0.3-0.1l-2.6,0c0,0-0.1,0-0.3,0c-0.2,0-0.4,0-0.7,0
				c-0.8,0-1,0.3-1,0.6l-0.2,9.1c0,0.9-0.3,1.6-0.5,1.6c0,0-0.1,0-0.3-0.1c-0.3-0.2-0.3-1.2-0.3-1.8c0-0.2,0-0.4,0-0.5
				c0-1.6-0.1-3.2-0.1-4.8l0-0.4c0-0.5,0-1.2,0-1.9c0-0.3,0-0.6,0-0.8c0-0.4,0-0.7-0.4-0.8L20,18.5c-0.1,0-0.2,0-0.3,0.1
				s-0.1,0.2-0.1,0.3l0.1,8.8c0,0.2,0,0.4,0,0.5c0,0.4,0,0.8,0,1.3c0.1,1.9,1.1,3.6,2.6,4.6c1,0.6,2.2,1,3.3,1c0.7,0,1.4-0.2,2-0.4
				c1.5-0.7,2.5-2.4,2.9-4.5c0.2-1.4,0.2-2.8,0.2-4.2C30.7,25.4,30.7,24.8,30.7,24.3z"/>
			<path class="st0" d="M25.6,36.1c-1.3,0-2.7-0.4-3.9-1.2c-1.8-1.2-3-3.2-3.1-5.5c0-0.4,0-0.9,0-1.3c0-0.2,0-0.4,0-0.5l-0.1-8.8
				c0-0.4,0.2-0.8,0.5-1.1c0.3-0.3,0.7-0.5,1.1-0.5c0,0,0,0,0,0l3.9,0.1c0.3,0,0.8,0.1,1.1,0.5c0.3-0.4,0.9-0.6,1.7-0.6
				c0.3,0,0.5,0,0.8,0h0c0,0,0.1,0,0.1,0l2.5,0c0.4,0,0.8,0.2,1.1,0.5s0.5,0.7,0.5,1.1l-0.1,5.4c0,0.5,0,1.1,0,1.6
				c0,1.4,0,2.9-0.2,4.4c-0.4,2.5-1.7,4.4-3.5,5.3C27.4,36,26.5,36.1,25.6,36.1z M20.8,19.6l0.1,8c0,0.2,0,0.4,0,0.5
				c0,0.4,0,0.8,0,1.2c0.1,1.5,0.9,2.9,2.1,3.7c0.8,0.5,1.8,0.8,2.6,0.8c0.5,0,1-0.1,1.5-0.3c1.2-0.6,2-1.9,2.3-3.6
				c0.2-1.3,0.2-2.7,0.2-4c0-0.5,0-1.1,0-1.7l0.1-4.7l-1.8,0c-0.1,0-0.2,0-0.3,0h0c-0.1,0-0.3,0-0.4,0l-0.2,8.6
				c0,1.3-0.5,2.7-1.6,2.7c-0.3,0-0.7-0.1-1-0.4c-0.8-0.6-0.8-1.8-0.7-2.8c0-0.2,0-0.3,0-0.5c0-1.6-0.1-3.2-0.1-4.8l0-0.4
				c0-0.5,0-1.2,0-1.9c0-0.2,0-0.3,0-0.5L20.8,19.6z"/>
		</g>
		<g>
			<path class="st0" d="M30,19.2c0,1.8-0.1,3.6-0.1,5.4c0,1.9,0.1,3.9-0.2,5.8c-0.3,1.6-1.1,3.4-2.6,4.2c-1.5,0.8-3.5,0.3-4.8-0.5
				c-1.4-0.9-2.3-2.5-2.4-4.2c0-0.6,0-1.2,0-1.8c0-2.9-0.1-5.8-0.1-8.8c1,0,1.9,0,2.9,0c0.4,0,0.7,0,1.1,0c0,0,0.1,3.1,0.1,3.4
				c0,1.6,0.1,3.2,0.1,4.8c0,0.7-0.2,2.2,0.4,2.7c1.2,0.9,1.5-1,1.5-1.8c0-0.9,0-1.8,0-2.7c0-2.1,0.1-4.3,0.1-6.4
				c0-0.4,1.2-0.2,1.5-0.2C28.3,19.2,29.2,19.2,30,19.2z"/>
			<path class="st0" d="M25.3,36c-1.2,0-2.6-0.4-3.6-1.1c-1.7-1.1-2.8-3-2.9-5.1c0-0.4,0-0.9,0-1.3c0-0.2,0-0.4,0-0.5l-0.1-8.8
				c0-0.3,0.1-0.6,0.3-0.8c0.2-0.2,0.5-0.3,0.8-0.3l3.9,0.1c0.7,0,1.1,0.5,1.1,1.4c0,0.1,0,0.1,0,0.2l0-0.4c0-0.2,0.1-1.3,1.7-1.3
				c0.3,0,0.5,0,0.7,0c0.1,0,0.1,0,0.2,0l2.5,0c0.3,0,0.6,0.1,0.8,0.3c0.2,0.2,0.3,0.5,0.3,0.8l-0.1,5.4c0,0.5,0,1,0,1.6
				c0,1.4,0,2.9-0.2,4.3c-0.4,2.3-1.6,4.1-3.3,5C27,35.8,26.2,36,25.3,36z M20.9,20.3l0.1,7.6c0,0.2,0,0.4,0,0.6c0,0.4,0,0.8,0,1.2
				c0.1,1.4,0.8,2.6,1.9,3.3c0.7,0.5,1.6,0.7,2.4,0.8c0.5,0,0.9-0.1,1.3-0.3c1-0.5,1.8-1.8,2-3.3c0.2-1.2,0.2-2.6,0.2-3.9
				c0-0.5,0-1.1,0-1.7l0.1-4.2h-1.4c-0.1,0-0.2,0-0.4,0l-0.2,8.2c0,1.9-0.8,3.1-2.1,3.1c-0.4,0-0.8-0.1-1.2-0.5
				c-1-0.7-0.9-2.2-0.9-3.1c0-0.2,0-0.3,0-0.4c0-1.6-0.1-3.2-0.1-4.8l0-0.4c0-0.4,0-1.2,0-1.9L20.9,20.3z"/>
		</g>
	</g>
	<path class="st5" d="M31.9,24l0.1-5.4c0-0.3-0.1-0.6-0.3-0.8c-0.2-0.2-0.5-0.3-0.8-0.3l-2.5,0c0,0-0.1,0-0.2,0c-0.2,0-0.5,0-0.7,0
		c-1.6,0-1.7,1.1-1.7,1.3l0,0.4c0-0.1,0-0.1,0-0.2c0-0.9-0.4-1.4-1.1-1.4l-3.9-0.1c-0.3,0-0.6,0.1-0.8,0.3s-0.3,0.5-0.3,0.8l0.1,8.8
		c0,0.2,0,0.4,0,0.5c0,0.4,0,0.9,0,1.3c0.1,2.1,1.2,4,2.9,5.1c1.1,0.7,2.4,1.1,3.6,1.1c0.8,0,1.6-0.2,2.3-0.5c1.7-0.8,2.9-2.7,3.3-5
		c0.2-1.4,0.2-2.9,0.2-4.3C31.9,25,31.9,24.5,31.9,24z"/>
	<path class="st6" d="M30.7,24.3l0.1-5.4c0-0.1,0-0.2-0.1-0.3s-0.2-0.1-0.3-0.1l-2.6,0c0,0-0.1,0-0.3,0c-0.2,0-0.4,0-0.7,0
		c-0.8,0-1,0.3-1,0.6l-0.2,9.1c0,0.9-0.3,1.6-0.5,1.6c0,0-0.1,0-0.3-0.1c-0.3-0.2-0.3-1.2-0.3-1.8c0-0.2,0-0.4,0-0.5
		c0-1.6-0.1-3.2-0.1-4.8l0-0.4c0-0.5,0-1.2,0-1.9c0-0.3,0-0.6,0-0.8c0-0.4,0-0.7-0.4-0.8L20,18.5c-0.1,0-0.2,0-0.3,0.1
		s-0.1,0.2-0.1,0.3l0.1,8.8c0,0.2,0,0.4,0,0.5c0,0.4,0,0.8,0,1.3c0.1,1.9,1.1,3.6,2.6,4.6c1,0.6,2.2,1,3.3,1c0.7,0,1.4-0.2,2-0.4
		c1.5-0.7,2.5-2.4,2.9-4.5c0.2-1.4,0.2-2.8,0.2-4.2C30.7,25.4,30.7,24.8,30.7,24.3z"/>
	<path class="st0" d="M30,19.2c0,1.8-0.1,3.6-0.1,5.4c0,1.9,0.1,3.9-0.2,5.8c-0.3,1.6-1.1,3.4-2.6,4.2c-1.5,0.8-3.5,0.3-4.8-0.5
		c-1.4-0.9-2.3-2.5-2.4-4.2c0-0.6,0-1.2,0-1.8c0-2.9-0.1-5.8-0.1-8.8c1,0,1.9,0,2.9,0c0.4,0,0.7,0,1.1,0c0,0,0.1,3.1,0.1,3.4
		c0,1.6,0.1,3.2,0.1,4.8c0,0.7-0.2,2.2,0.4,2.7c1.2,0.9,1.5-1,1.5-1.8c0-0.9,0-1.8,0-2.7c0-2.1,0.1-4.3,0.1-6.4
		c0-0.4,1.2-0.2,1.5-0.2C28.3,19.2,29.2,19.2,30,19.2z"/>
</g>
<g>
	<path class="st4" d="M97.7,15.6c-1.5-3-4.5-5-7.6-5.1c-1.7,0-3.4,0.5-4.9,1.5c-4.2,3-4.8,9.2-3.9,13.9c0.9,4.9,4.3,8,8.9,8.1
		c0.1,0,0.2,0,0.3,0c5.1,0,8.8-4.1,9-10C99.4,20.8,98.9,18,97.7,15.6z"/>
	<g>
		<g>
			<path class="st0" d="M97.3,15.1c-1.3-2.6-3.9-4.3-6.5-4.3c-1.4,0-2.8,0.4-4.1,1.3c-3.7,2.7-4.2,8.2-3.4,12.6
				c0.8,4.3,3.6,7,7.6,7.1c0.1,0,0.2,0,0.3,0c4.4,0,7.5-3.5,7.7-8.7C98.9,20,98.4,17.3,97.3,15.1z M91,24.1c-0.5-0.4-0.8-1.6-0.6-4
				c0.1-0.7,0.3-1.1,0.4-1.3c0,0,0.1,0,0.2,0.1c0.5,0.2,0.7,1.3,0.7,3C91.6,22.6,91.3,23.7,91,24.1z"/>
			<path class="st0" d="M90.9,33c-4.6-0.1-8-3.2-8.9-8.1C81.1,20.1,81.7,14,85.9,11c1.5-1,3.1-1.6,4.9-1.5c3.1,0.1,6.1,2.1,7.6,5.1
				c1.2,2.4,1.8,5.2,1.7,8.6c-0.2,5.8-3.8,9.9-9,10C91.1,33,91,33,90.9,33z M90.7,12.1c-1.2,0-2.3,0.3-3.3,1
				c-3.2,2.3-3.6,7.3-2.9,11.3c0.7,3.8,3.1,6,6.6,6c3.7,0,6.2-2.9,6.3-7.4c0.1-2.9-0.4-5.3-1.4-7.3C95,13.6,92.9,12.1,90.7,12.1z
				 M90.9,25.4c-0.3,0-0.6-0.1-0.8-0.3c-1-0.8-1.4-2.6-1.1-5.1c0.1-0.9,0.4-1.6,0.8-2c0.3-0.3,0.8-0.5,1.2-0.4
				c0.1,0,0.3,0.1,0.4,0.1c1.3,0.6,1.5,2.5,1.4,4.3c0,0.9-0.4,2.2-0.9,2.9c-0.2,0.3-0.5,0.5-0.9,0.5C91.1,25.4,91,25.4,90.9,25.4z"
				/>
		</g>
		<g>
			<path class="st0" d="M95.9,15.8c-1.2-2.3-3.4-3.8-5.8-3.9c-1.3,0-2.5,0.4-3.6,1.1c-3.4,2.4-3.8,7.7-3.1,11.8
				c0.7,3.9,3.3,6.3,6.8,6.4c0.1,0,0.2,0,0.2,0c4.9,0,6.8-4.2,6.8-7.9C97.4,20.4,96.9,17.8,95.9,15.8z M91.3,24.2
				c-0.1,0.3-0.5,1.1-1,1.1c-0.1,0-0.3-0.1-0.5-0.2c-0.9-0.6-1.2-2.3-1-4.8c0-0.2,0.2-2,1.2-2c0.2,0,0.3,0,0.5,0.1
				c1.2,0.6,1.2,2.8,1.2,3.8C91.8,22.7,91.6,23.5,91.3,24.2z"/>
			<path class="st0" d="M90.2,32.5c-4.2-0.1-7.3-3-8.1-7.5c-0.8-4.5-0.3-10.3,3.6-13.1c1.3-0.9,2.8-1.4,4.4-1.4
				c2.8,0.1,5.5,1.9,6.9,4.6c1.2,2.2,1.7,5,1.6,8.2c-0.1,4.5-2.7,9.1-8.2,9.1C90.4,32.5,90.3,32.5,90.2,32.5z M90,13.2
				c-1,0-1.9,0.3-2.8,0.9c-2.9,2.1-3.2,6.9-2.5,10.5c0.6,3.4,2.7,5.3,5.7,5.3c5.1,0,5.5-5.5,5.5-6.6c0.1-2.7-0.4-5.1-1.3-6.9
				C93.7,14.5,91.9,13.3,90,13.2z M90.3,26.6c-0.4,0-0.8-0.1-1.2-0.4c-1.3-0.9-1.9-3-1.5-6c0.2-2,1.2-3.2,2.6-3.2
				c0.3,0,0.7,0.1,1,0.3c2,0.9,1.9,3.8,1.9,5c0,0.6-0.2,1.6-0.6,2.4C91.9,26.3,91,26.6,90.3,26.6z M90.3,20c0,0.1-0.1,0.3-0.1,0.4
				c-0.2,1.4-0.1,2.3,0.1,2.8c0.1-0.4,0.2-0.8,0.2-1C90.5,21,90.4,20.4,90.3,20z"/>
		</g>
		<g>
			<path class="st0" d="M95.1,16.3c-1.6-3.2-5.5-4.8-8.6-2.6c-3.3,2.4-3.5,7.6-2.9,11.3c0.6,3.5,2.9,6,6.6,6c4.2,0,6.3-3.5,6.3-7.4
				C96.5,21.2,96.2,18.6,95.1,16.3z M89.3,25.8c-1.4-1-1.3-3.7-1.2-5.2c0.1-1.3,0.8-3,2.4-2.3c1.5,0.7,1.5,2.9,1.4,4.3
				C91.9,23.7,91.1,27.1,89.3,25.8z"/>
			<path class="st0" d="M89.9,32.3c-4-0.1-6.8-2.7-7.6-7.1c-0.8-4.4-0.3-9.9,3.4-12.6c1.2-0.9,2.6-1.3,4.1-1.3
				c2.6,0.1,5.2,1.8,6.5,4.3c1.1,2.2,1.6,4.8,1.6,7.9c-0.1,5.2-3.2,8.6-7.7,8.7C90.1,32.3,90,32.3,89.9,32.3z M89.7,14
				c-0.9,0-1.7,0.2-2.5,0.8c-2.7,1.9-3,6.6-2.3,10c0.3,1.4,1.3,4.8,5.1,4.9c0.1,0,0.1,0,0.2,0c3.6,0,5-3.1,5-6.1
				c0.1-2.6-0.4-4.9-1.3-6.7C93,15.2,91.4,14.1,89.7,14z M90,27.4c-0.5,0-1-0.2-1.5-0.5c-1.5-1-2.1-3.2-1.8-6.5
				c0.2-2.3,1.4-3.7,3.1-3.6c0.4,0,0.8,0.1,1.2,0.3c2.3,1.1,2.2,4.2,2.2,5.5C93.2,24.2,92.3,27.5,90,27.4z M89.8,19.5
				c-0.1,0.1-0.3,0.6-0.4,1.3c-0.3,2.4,0.1,3.6,0.6,4c0.3-0.4,0.6-1.5,0.7-2.1c0.1-1.8-0.2-2.8-0.7-3C89.9,19.5,89.8,19.5,89.8,19.5
				z"/>
		</g>
	</g>
	<path class="st5" d="M96.8,15.6c-1.3-2.5-3.7-4.1-6.3-4.2c-1.4,0-2.8,0.4-3.9,1.2c-3.6,2.6-4.1,8-3.3,12.2c0.8,4.2,3.5,6.7,7.4,6.8
		c0.1,0,0.2,0,0.3,0c4.3,0,7.3-3.4,7.4-8.4C98.4,20.3,97.9,17.7,96.8,15.6z M91,24.1c-0.5-0.4-0.8-1.6-0.6-4
		c0.1-0.7,0.3-1.1,0.4-1.3c0,0,0.1,0,0.2,0.1c0.5,0.2,0.7,1.3,0.7,3C91.6,22.6,91.3,23.7,91,24.1z"/>
	<path class="st6" d="M95.9,15.8c-1.2-2.3-3.4-3.8-5.8-3.9c-1.3,0-2.5,0.4-3.6,1.1c-3.4,2.4-3.8,7.7-3.1,11.8
		c0.7,3.9,3.3,6.3,6.8,6.4c0.1,0,0.2,0,0.2,0c4.9,0,6.8-4.2,6.8-7.9C97.4,20.4,96.9,17.8,95.9,15.8z M91.3,24.2
		c-0.1,0.3-0.5,1.1-1,1.1c-0.1,0-0.3-0.1-0.5-0.2c-0.9-0.6-1.2-2.3-1-4.8c0-0.2,0.2-2,1.2-2c0.2,0,0.3,0,0.5,0.1
		c1.2,0.6,1.2,2.8,1.2,3.8C91.8,22.7,91.6,23.5,91.3,24.2z"/>
	<path class="st0" d="M95.1,16.3c-1.6-3.2-5.5-4.8-8.6-2.6c-3.3,2.4-3.5,7.6-2.9,11.3c0.6,3.5,2.9,6,6.6,6c4.2,0,6.3-3.5,6.3-7.4
		C96.5,21.2,96.2,18.6,95.1,16.3z M89.3,25.8c-1.4-1-1.3-3.7-1.2-5.2c0.1-1.3,0.8-3,2.4-2.3c1.5,0.7,1.5,2.9,1.4,4.3
		C91.9,23.7,91.1,27.1,89.3,25.8z"/>
</g>
<path class="st4" d="M14.7,14.4c-0.2,0-0.4,0.1-0.5,0.1L11,14.8c-0.6,0.1-1.2,0.4-1.6,0.9c-0.1,0.1-0.1,0.1-0.1,0.2
	c-0.4-0.1-0.8-0.2-1.3-0.1l-1.4,0.3C6,16.3,5,16.5,4.5,16.6c-0.3,0.1-0.8,0.2-1.2,0.4c-0.8,0.5-1.2,1.4-1,2.4l3,15.4
	c0,0.4,0.2,1.3,1.1,1.9c0.5,0.3,1.2,0.5,1.8,0.3c0.1,0,0.2,0,0.3-0.1l3.9-0.8c0.6-0.1,1.1-0.5,1.5-1c0.3,0.1,0.6,0.2,1.1,0.1
	l3.9-0.5c0.6-0.1,1.2-0.4,1.6-0.9c0.4-0.5,0.5-1.2,0.4-1.8l-3.1-15.9C17.4,15.1,16.5,14.1,14.7,14.4z"/>
<path class="st0" d="M15.5,12.9C15.3,13,15.1,13,15,13l-3.2,0.4c-0.6,0.1-1.2,0.4-1.6,0.9c-0.1,0.1-0.1,0.1-0.1,0.2
	c-0.4-0.1-0.8-0.2-1.3-0.1l-1.4,0.3c-0.6,0.1-1.5,0.3-2.1,0.4c-0.3,0.1-0.8,0.2-1.2,0.4c-0.8,0.5-1.2,1.4-1,2.4l3,15.4
	c0,0.4,0.2,1.3,1.1,1.9c0.5,0.3,1.2,0.5,1.8,0.3c0.1,0,0.2,0,0.3-0.1l3.8-0.8c0.6-0.1,1.1-0.5,1.5-1c0.3,0.1,0.6,0.2,1.1,0.1
	l3.9-0.5c0.6-0.1,1.2-0.4,1.6-0.9c0.4-0.5,0.5-1.2,0.4-1.8l-3.1-15.9C18.2,13.7,17.3,12.7,15.5,12.9z"/>
<path class="st5" d="M15.6,13.9c-0.2,0-0.4,0.1-0.5,0.1l-3.2,0.4c-0.4,0-0.7,0.2-0.9,0.5c-0.2,0.3-0.3,0.7-0.2,1l0.2,0.9l-0.4-0.6
	c-0.3-0.6-0.9-0.8-1.6-0.7l-1.4,0.3c-0.5,0.1-1.6,0.3-2.1,0.4c-0.3,0.1-0.6,0.1-0.9,0.3c-0.5,0.3-0.7,0.8-0.6,1.3l3,15.4l0,0
	c0,0.3,0.1,0.9,0.6,1.3c0.3,0.2,0.7,0.3,1.1,0.2c0.1,0,0.2,0,0.3-0.1l3.9-0.8c0.4-0.1,0.7-0.3,0.9-0.6c0.2-0.3,0.3-0.7,0.2-1
	L13.9,32l0.1,0.1l0,0c0.2,0.3,0.7,0.9,1.5,0.8l3.9-0.5c0,0,0.1,0,0.1,0l0,0c0.3-0.1,0.6-0.3,0.8-0.5c0.2-0.3,0.3-0.7,0.2-1L17.4,15
	C17.3,14.5,17,13.8,15.6,13.9z"/>
<path class="st6" d="M15.5,15.1c-0.2,0-0.4,0.1-0.5,0.1l-3.2,0.4c-0.1,0-0.3,0.1-0.4,0.2s-0.1,0.3-0.1,0.4l0.9,4.5L9.6,17
	c0,0,0,0,0-0.1c-0.2-0.4-0.6-0.4-0.7-0.4l-1.3,0.3C7.1,17,6,17.2,5.4,17.3C5,17.4,4.5,17.5,4.6,18l3,15.4v0c0,0.2,0.1,0.5,0.3,0.7
	c0.2,0.1,0.4,0.1,0.5,0.1c0.1,0,0.2,0,0.2-0.1l3.9-0.8c0.1,0,0.3-0.1,0.4-0.2c0.1-0.1,0.1-0.3,0.1-0.4l-0.9-3.3l2.3,2.5
	c0,0,0,0,0,0.1c0.2,0.3,0.4,0.6,0.8,0.5l3.9-0.5c0.1,0,0.3-0.1,0.4-0.2c0.1-0.1,0.1-0.3,0.1-0.4l-3.1-15.9
	C16.3,15,15.8,15,15.5,15.1z"/>
<path class="st0" d="M18.7,31.9c-0.9,0.1-1.8,0.2-2.7,0.3c-0.4,0-0.8,0.1-1.1,0.2c-0.1,0-0.3-0.3-0.4-0.4c-1.3-1.4-2.5-2.8-3.8-4.3
	c0.5,1.8,1,3.7,1.5,5.5c-1.1,0.2-2.1,0.4-3.1,0.6c-0.3,0-0.5,0.1-0.8,0.2c-0.1,0-0.3,0.1-0.3,0.1c0,0-0.1-0.3-0.1-0.4
	c-0.4-2.1-0.8-4.2-1.2-6.3c-0.5-2.5-1-5.1-1.5-7.6c-0.1-0.5-0.2-1-0.3-1.5c0,0,2.6-0.5,2.8-0.6c0.4-0.1,0.7-0.1,1.1-0.2
	c0.1,0,0.1,0.1,0.2,0.2c0.4,0.6,0.9,1.3,1.3,1.9c0.9,1.3,1.8,2.6,2.7,3.9c-0.5-2.4-0.9-4.7-1.4-7.1c1.1-0.1,2.1-0.3,3.2-0.4
	c0.1,0,0.8-0.1,0.9-0.1c0,0.1,0.1,0.3,0.1,0.5c0.4,2.2,0.8,4.3,1.3,6.5C17.6,25.9,18.1,28.9,18.7,31.9z"/>
<g>
	<path class="st7" d="M44.1,29c0.2-0.4,0.2-0.8,0.1-1.3l-0.6-2.7c-0.2-0.7-0.6-1.2-1.2-1.5c0.5-0.5,0.8-1.3,0.6-2L42.2,18
		c-0.3-1.2-1.4-1.9-2.6-1.7l-8.3,1.8c-1.2,0.3-1.9,1.4-1.7,2.6l3.6,16.5c0.3,1.2,1.4,1.9,2.6,1.7l8.8-1.9c1.2-0.3,1.9-1.4,1.7-2.6
		l-0.8-3.9C45.3,29.8,44.8,29.3,44.1,29z"/>
	<path class="st0" d="M44.9,27.8c0.2-0.4,0.2-0.8,0.1-1.3l-0.6-2.7c-0.2-0.7-0.6-1.2-1.2-1.5c0.5-0.5,0.8-1.3,0.6-2L43,16.7
		c-0.3-1.2-1.4-1.9-2.6-1.7l-8.3,1.8c-1.2,0.3-1.9,1.4-1.7,2.6L34,36c0.3,1.2,1.4,1.9,2.6,1.7l8.8-1.9c1.2-0.3,1.9-1.4,1.7-2.6
		l-0.8-3.9C46.1,28.6,45.5,28,44.9,27.8z"/>
	<path class="st5" d="M43.8,28.7l-3.5,0.8l-0.2-0.7l2.9-0.6c0.6-0.1,1-0.8,0.9-1.4l-0.6-2.7c-0.1-0.6-0.8-1-1.4-0.9l-3.2,0.7l-0.3-1
		l3.5-1c0.6-0.2,0.9-0.8,0.8-1.4L42,17c-0.1-0.6-0.8-1-1.4-0.9l-8.3,1.8c-0.6,0.1-1,0.8-0.9,1.4l3.6,16.5c0.1,0.6,0.8,1,1.4,0.9
		l8.8-1.9c0.6-0.1,1-0.8,0.9-1.4l-0.8-3.9C45.1,28.9,44.5,28.5,43.8,28.7z"/>
	<path class="st6" d="M43.7,29.7l-4.1,0.9l-0.4-1.9l3.5-0.8c0.3-0.1,0.5-0.3,0.4-0.6l-0.6-2.7c-0.1-0.3-0.3-0.5-0.6-0.4l-3.8,0.8
		l-0.6-2.2l4.1-1.2c0.3-0.1,0.4-0.3,0.4-0.6l-0.8-3.6c-0.1-0.3-0.3-0.5-0.6-0.4l-8.3,1.8c-0.3,0.1-0.5,0.3-0.4,0.6l3.6,16.5
		c0.1,0.3,0.3,0.5,0.6,0.4l8.8-1.9c0.3-0.1,0.5-0.3,0.4-0.6l-0.8-3.9C44.3,29.8,44,29.7,43.7,29.7z"/>
	<polygon class="st0" points="38.2,28.6 42.3,27.7 41.7,25 37.4,26 36.5,22.8 41,21.5 40.3,17.9 31.9,19.7 35.6,36.3 44.3,34.3 
		43.5,30.5 38.9,31.5 	"/>
</g>
<path class="st4" d="M54.7,23.6c-0.1-0.1-0.2-0.2-0.3-0.3l2.3-2.2c0.6-0.6,1.4-1.8-0.2-3.8l0,0c-0.4-0.5-0.8-0.9-1.3-1.3
	c-1.3-1.1-3.1-1.7-4.8-1.8c-3.3-0.2-6.1,1.4-7.2,4.3c-0.9,2.3-0.5,5,1.1,7.2l-1.9,0.9c-0.6,0.3-1,0.8-1.3,1.4
	c-0.2,0.6-0.1,1.3,0.2,1.9c1.9,3.4,5,5.4,8.8,5.7c3,0.2,5.5-2.1,6.3-4.3C57.6,28.4,56.4,25.3,54.7,23.6z"/>
<path class="st0" d="M55.9,22.5c-0.1-0.1-0.2-0.2-0.3-0.3l2.3-2.2c0.6-0.6,1.4-1.8-0.2-3.8l0,0c-0.4-0.5-0.8-0.9-1.3-1.3
	c-1.3-1.1-3.1-1.7-4.8-1.8c-3.3-0.2-6.1,1.4-7.2,4.3c-0.9,2.3-0.5,5,1.1,7.2l-1.9,0.9c-0.6,0.3-1,0.8-1.3,1.4
	c-0.2,0.6-0.1,1.3,0.2,1.9c1.9,3.4,5,5.4,8.8,5.7c3,0.2,5.5-2.1,6.3-4.3C58.8,27.2,57.5,24.1,55.9,22.5z"/>
<path class="st5" d="M55.2,23.1c-0.3-0.4-0.7-0.7-1.1-1c0.2-0.1,0.3-0.1,0.4-0.3l2.7-2.6c1-0.9,0-2.1-0.3-2.5l0,0
	c-0.3-0.4-0.7-0.8-1.1-1.1c-1.2-0.9-2.7-1.5-4.3-1.6c-2.9-0.2-5.3,1.2-6.2,3.7c-0.9,2.3-0.3,4.9,1.6,7c0.1,0.1,0.1,0.1,0.2,0.2
	L44,26.4c-0.3,0.1-0.6,0.4-0.7,0.8s-0.1,0.7,0.1,1c1.7,3.1,4.5,4.9,8,5.1c2.4,0.2,4.6-1.8,5.3-3.7C57.7,27.4,56.7,24.7,55.2,23.1z"
	/>
<path class="st6" d="M54.3,24c-0.7-0.7-1.4-1.2-2.1-1.8c-0.1-0.1-0.3-0.2-0.4-0.3c-0.5-0.4-1.2-0.8-1.3-1.3c0-0.2,0-0.4,0.1-0.5
	c0.1-0.1,0.3-0.2,0.5-0.1c0.7,0.2,1.3,0.9,1.6,1.5c0.1,0.2,0.2,0.3,0.4,0.3c0.2,0,0.3,0,0.5-0.1l2.8-2.6c0.5-0.4,0-1-0.3-1.4l0,0
	c-0.3-0.4-0.6-0.7-1-1c-1.1-0.8-2.5-1.4-3.9-1.4c-2.5-0.2-4.6,1.1-5.4,3.2c-0.8,2-0.2,4.3,1.5,6.2c0.4,0.5,0.9,0.9,1.4,1.3
	c0.2,0.1,0.4,0.3,0.6,0.4c0.3,0.2,0.6,0.4,0.9,0.6c0.4,0.3,0.4,0.5,0.4,0.7c0,0.1-0.1,0.2-0.1,0.2c0,0,0,0,0,0
	c-0.5,0-1.1-0.6-1.7-1.5c0,0,0-0.1-0.1-0.1c-0.1-0.1-0.2-0.5-0.6-0.5c-0.1,0-0.3,0-0.4,0.1L44,27.4c-0.1,0.1-0.2,0.2-0.3,0.3
	s0,0.3,0,0.4c1.6,2.8,4.2,4.5,7.4,4.8c2,0.1,3.9-1.6,4.6-3.2C56.5,27.7,55.6,25.3,54.3,24z"/>
<path class="st4" d="M67.5,13.9c-0.4,0-0.9,0-1.2,0h-0.1c-0.1,0-0.1,0-0.1,0l-8.8-0.5c-0.7,0-1.3,0.2-1.8,0.7
	c-0.5,0.5-0.8,1.1-0.7,1.8l0.1,4.5c0,0.7,0.4,2.5,3.2,2.7l-0.5,9.2c-0.1,1.2,0.6,2.5,2.7,2.6c0.5,0,1.5,0.1,2,0.1l0.3,0
	c0,0,0,0,0.1,0l0.1,0c0.2,0,0.5,0.1,0.9,0.1c2,0.1,3.1-1.2,3.2-2.6l0.5-9.3l0.7,0c1.3,0.1,2.5-1,2.6-2.3l0.2-4.3
	C70.9,15.7,70.5,14,67.5,13.9z"/>
<g>
	<g>
		<path class="st0" d="M68.4,13.3c-0.4,0-0.9,0-1.2,0c-0.1,0-0.2,0-0.3,0l-8.8-0.5c-0.3,0-0.7,0.1-0.9,0.3c-0.2,0.2-0.4,0.6-0.4,0.9
			l0.1,4.5c0,1.4,1.6,1.5,2.1,1.5l0,0c0.4,0,0.8,0,1.1,0l-0.6,10.5c0,0.8,0.5,1.3,1.5,1.3c0.6,0,1.7,0.1,2.2,0.1l0.2,0
			c0.1,0,0.2,0,0.3,0c0.2,0,0.5,0.1,0.8,0.1c1.4,0.1,1.9-0.9,1.9-1.4l0.6-10.4c0,0,0-0.1,0-0.1l1.9,0.1c0.7,0,1.3-0.5,1.3-1.1
			l0.2-4.3C70.7,13.4,69.1,13.4,68.4,13.3z"/>
		<path class="st0" d="M64.6,33.3c-0.3,0-0.7-0.1-0.9-0.1l-0.1,0c0,0-0.1,0-0.1,0l-0.3,0c-0.5,0-1.5-0.1-2-0.1
			c-2.1-0.1-2.8-1.4-2.7-2.6l0.5-9.2c-2.8-0.2-3.2-1.9-3.2-2.7l-0.1-4.5c0-0.7,0.3-1.3,0.7-1.8s1.2-0.7,1.8-0.7l8.8,0.5
			c0,0,0.1,0,0.1,0h0.1c0.3,0,0.8,0,1.2,0c3,0.2,2.3,1.8,2.3,2.8l-0.2,4.3c-0.1,1.4-0.2,2.4-1.5,2.3l-0.7,0l-0.5,9.3
			C67.8,32.1,66.6,33.4,64.6,33.3z M63.8,30.8C63.8,30.8,63.8,30.8,63.8,30.8c0.1,0,0.2,0,0.3,0l0.1,0c0.2,0,0.4,0.1,0.6,0.1
			c0.4,0,0.6-0.1,0.6-0.3l0.6-10.5c0-0.3,0.1-0.6,0.4-0.9c0.2-0.2,0.6-0.4,0.9-0.3l1.9,0.1l0.2-4.3c0,0,0,0,0,0
			c-0.1-0.1-0.4-0.1-1-0.2c-0.4,0-0.8,0-1.1,0h-0.1c-0.1,0-0.2,0-0.2,0L58.1,14l0.1,4.5c0,0,0,0.1,0,0.1c0,0,0.2,0.2,1,0.2
			c0.3,0,0.7,0,1.1,0c0.3,0,0.7,0.1,0.9,0.4s0.3,0.6,0.3,0.9l-0.6,10.4c0.1,0,0.2,0,0.4,0.1c0.5,0,1.5,0.1,2,0.1L63.8,30.8
			L63.8,30.8z"/>
	</g>
	<g>
		<path class="st0" d="M67.8,14.4c-0.4,0-0.8,0-1.1,0c-0.1,0-0.2,0-0.3,0l-8.8-0.5c-0.1,0-0.3,0-0.3,0.1s-0.1,0.2-0.1,0.3l0.1,4.5
			c0,0.7,0.9,0.7,1.4,0.7l0,0c0.4,0,0.9,0,1.3,0c0.2,0,0.4,0,0.6,0l-0.6,11.3c0,0.5,0.4,0.5,0.8,0.5c0.6,0,1.7,0.1,2.2,0.1l0.2,0
			c0.1,0,0.2,0,0.3,0c0.2,0,0.4,0.1,0.7,0.1c1,0,1.1-0.5,1.1-0.7l0.6-10.4c0,0,0-0.1,0-0.2c0-0.1,0-0.4,0-0.6l2.7,0.1
			c0.3,0,0.5-0.2,0.5-0.4l0.2-4.3C69.3,14.4,68.4,14.4,67.8,14.4z"/>
		<path class="st0" d="M64,32.8c-0.3,0-0.6-0.1-0.8-0.1c-0.1,0-0.2,0-0.2,0l-0.2,0c-0.5,0-1.6-0.1-2.2-0.1c-1.8-0.1-2-1.2-2-1.8
			l0.5-10c-0.2,0-0.5,0-0.7,0c-2.1-0.1-2.5-1.1-2.6-1.9l-0.1-4.5c0-0.5,0.2-0.9,0.5-1.3c0.3-0.3,0.8-0.5,1.3-0.5l8.8,0.5
			c0,0,0.1,0,0.2,0c0.3,0,0.8,0,1.2,0c1.8,0.1,2.7,0.8,2.6,2l-0.2,4.3c-0.1,0.9-0.8,1.6-1.8,1.6L67,20.9L66.4,31
			C66.4,31.9,65.6,32.9,64,32.8z M63.2,30.3c0.1,0,0.3,0,0.5,0.1c0.1,0,0.3,0,0.4,0.1l0.5-9.9c0,0,0-0.1,0-0.1c0-0.2,0-0.5,0-0.8
			c0.1-0.7,0.6-1.2,1.3-1.1l2,0.1l0.2-2.9c-0.1,0-0.2,0-0.3,0c-0.4,0-0.8,0-1.1,0c-0.2,0-0.3,0-0.3,0l-8-0.4l0.1,3.2
			c0.1,0,0.2,0,0.3,0c0.4,0,0.8,0,1.2,0c0.2,0,0.5,0,0.6,0c0.3,0,0.7,0.1,0.9,0.4c0.2,0.2,0.3,0.6,0.3,0.9l-0.6,10.5
			c0.6,0,1.4,0.1,1.8,0.1L63.2,30.3z"/>
	</g>
	<g>
		<path class="st0" d="M68.2,19.6c-1,0-2-0.1-3.1-0.2c-0.2,0-0.2,1.1-0.2,1.3c-0.1,2.6-0.3,5.2-0.4,7.7c-0.1,0.9-0.1,1.8-0.1,2.7
			c0,0.5-1.2,0.2-1.6,0.2c-0.2,0-2.8-0.1-2.8-0.2c0-0.7,0.1-1.3,0.1-2c0.2-3.2,0.3-6.5,0.5-9.7c0-0.2-3.3,0.1-3.3-0.4
			c0-1.5-0.1-3-0.1-4.5c2.9,0.2,5.9,0.3,8.8,0.5c0.3,0,2.5,0,2.5,0.3C68.4,16.8,68.3,18.2,68.2,19.6z"/>
		<path class="st0" d="M63.7,32.7c-0.3,0-0.5-0.1-0.8-0.1c-0.1,0-0.2,0-0.3,0l-0.2,0c-0.5,0-1.6-0.1-2.2-0.1
			c-1.1-0.1-1.6-0.5-1.5-1.3l0.6-10.5c-0.4,0-0.8,0-1.1,0c-0.5,0-2.1-0.1-2.1-1.5L56,14.6c0-0.3,0.1-0.7,0.4-0.9
			c0.2-0.2,0.6-0.4,0.9-0.3l8.8,0.5c0.1,0,0.1,0,0.3,0c0.3,0,0.8,0,1.2,0c0.7,0,2.3,0.1,2.2,1.5l-0.2,4.3c0,0.7-0.6,1.2-1.3,1.1
			l-1.9-0.1c0,0,0,0.1,0,0.1l-0.6,10.4C65.6,31.8,65.2,32.7,63.7,32.7z M62.9,30.1c0.1,0,0.3,0,0.4,0l0.5-9.5c0,0,0-0.1,0-0.1
			c0-0.9,0-1.5,0.5-2c0.3-0.3,0.6-0.4,1-0.4l1.8,0.1l0.1-2c-0.3,0-0.7,0-0.9,0c-0.2,0-0.3,0-0.4,0l-7.5-0.4l0.1,2.3c0.3,0,0.7,0,1,0
			c0.3,0,0.7,0,0.9,0c1.5,0.1,1.4,1.2,1.4,1.4L61.3,30c0.5,0,1.1,0.1,1.4,0.1L62.9,30.1z"/>
	</g>
</g>
<g>
	<path class="st5" d="M68.4,13.3c-0.4,0-0.9,0-1.2,0c-0.1,0-0.2,0-0.3,0l-8.8-0.5c-0.3,0-0.7,0.1-0.9,0.3c-0.2,0.2-0.4,0.6-0.4,0.9
		l0.1,4.5c0,1.4,1.6,1.5,2.1,1.5l0,0c0.4,0,0.8,0,1.1,0l-0.6,10.5c0,0.8,0.5,1.3,1.5,1.3c0.6,0,1.7,0.1,2.2,0.1l0.2,0
		c0.1,0,0.2,0,0.3,0c0.2,0,0.5,0.1,0.8,0.1c1.4,0.1,1.9-0.9,1.9-1.4l0.6-10.4c0,0,0-0.1,0-0.1l1.9,0.1c0.7,0,1.3-0.5,1.3-1.1
		l0.2-4.3C70.7,13.4,69.1,13.4,68.4,13.3z"/>
	<path class="st6" d="M67.8,14.4c-0.4,0-0.8,0-1.1,0c-0.1,0-0.2,0-0.3,0l-8.8-0.5c-0.1,0-0.3,0-0.3,0.1s-0.1,0.2-0.1,0.3l0.1,4.5
		c0,0.7,0.9,0.7,1.4,0.7l0,0c0.4,0,0.9,0,1.3,0c0.2,0,0.4,0,0.6,0l-0.6,11.3c0,0.5,0.4,0.5,0.8,0.5c0.6,0,1.7,0.1,2.2,0.1l0.2,0
		c0.1,0,0.2,0,0.3,0c0.2,0,0.4,0.1,0.7,0.1c1,0,1.1-0.5,1.1-0.7l0.6-10.4c0,0,0-0.1,0-0.2c0-0.1,0-0.4,0-0.6l2.7,0.1
		c0.3,0,0.5-0.2,0.5-0.4l0.2-4.3C69.3,14.4,68.4,14.4,67.8,14.4z"/>
	<path class="st0" d="M68.1,19.4c-1,0-2,0-3.1-0.1c-0.2,0-0.1,1.1-0.1,1.3c-0.1,2.6-0.1,5.2-0.1,7.7c0,0.9,0,1.8-0.1,2.7
		c0,0.5-1.2,0.2-1.6,0.2c-0.2,0-2.8,0-2.8-0.1c0-0.7,0-1.3,0-2c0.1-3.2,0.1-6.5,0.2-9.7c0-0.2-3.3,0.3-3.3-0.3
		c-0.1-1.5-0.2-3-0.3-4.5c2.9,0.1,5.9,0.1,8.8,0.2c0.3,0,2.5-0.1,2.5,0.2C68.2,16.5,68.1,18,68.1,19.4z"/>
</g>
<path class="st0" d="M50.9,32.6c-3-0.2-5.5-1.8-6.9-4.5c1-0.4,2-0.9,3-1.3c0.2-0.1,0.4-0.2,0.6-0.3c0.3-0.1,0.2,0.1,0.4,0.3
	c0.5,0.7,1.3,1.7,2.1,1.7c0.4,0,0.6-0.3,0.7-0.6c0.1-0.5-0.2-0.9-0.6-1.2c-0.5-0.4-1-0.7-1.5-1c-0.5-0.4-0.9-0.8-1.3-1.2
	c-1.4-1.5-2.1-3.6-1.3-5.7c1.3-3.5,5.9-3.5,8.5-1.5c0.3,0.3,0.6,0.5,0.9,0.9c0.1,0.1,0.5,0.6,0.4,0.7c-0.3,0.3-0.6,0.5-0.8,0.8
	c-0.6,0.6-1.3,1.2-1.9,1.8c-0.4-0.8-1.1-1.6-2-1.8c-0.8-0.2-1.5,0.4-1.3,1.3c0.2,0.9,1.3,1.5,2,2c0.7,0.5,1.4,1.1,2,1.7
	c1.2,1.3,2,3.4,1.3,5.1C54.3,31.3,52.5,32.7,50.9,32.6z"/>
<path class="st8" d="M-111.7-92.7c0,0.2,0,0.4,0,0.7"/>
</svg>
