<?xml version="1.0" encoding="iso-8859-1"?>
<!-- Generator: Adobe Illustrator 24.2.0, SVG Export Plug-In . SVG Version: 6.00 Build 0)  -->
<svg version="1.1" id="Layer_1" xmlns="http://www.w3.org/2000/svg" xmlns:xlink="http://www.w3.org/1999/xlink" x="0px" y="0px"
	 viewBox="0 0 50 50" enable-background="new 0 0 50 50" xml:space="preserve">
<g>
	<path fill="#FFFFFF" d="M32.1,42.6L2.4,12.9c-1-1-1-2.6,0-3.5l0,0c1-1,2.6-1,3.5,0l29.7,29.7c1,1,1,2.6,0,3.5l0,0
		C34.6,43.6,33.1,43.6,32.1,42.6z"/>
</g>
<g>
	<path fill="#FFFFFF" d="M35.6,12.9L5.9,42.6c-1,1-2.6,1-3.5,0l0,0c-1-1-1-2.6,0-3.5L32.1,9.4c1-1,2.6-1,3.5,0l0,0
		C36.6,10.4,36.6,11.9,35.6,12.9z"/>
</g>
</svg>
