<?xml version="1.0" encoding="utf-8"?>
<!-- Generator: Adobe Illustrator 24.1.2, SVG Export Plug-In . SVG Version: 6.00 Build 0)  -->
<svg version="1.1" id="Layer_1" xmlns="http://www.w3.org/2000/svg" xmlns:xlink="http://www.w3.org/1999/xlink" x="0px" y="0px"
	 viewBox="0 0 50 50" style="enable-background:new 0 0 50 50;" xml:space="preserve">
<style type="text/css">
	.st0{fill:#FFFFFF;}
</style>
<g>
	<path class="st0" d="M33.5,16h-30C2.12,16,1,14.88,1,13.5v0C1,12.12,2.12,11,3.5,11h30c1.37,0,2.5,1.12,2.5,2.5v0
		C36,14.88,34.88,16,33.5,16z"/>
	<path class="st0" d="M45.5,28.5h-42C2.12,28.5,1,27.38,1,26v0c0-1.38,1.12-2.5,2.5-2.5h42c1.37,0,2.5,1.12,2.5,2.5v0
		C48,27.38,46.88,28.5,45.5,28.5z"/>
	<path class="st0" d="M28.5,41h-25C2.12,41,1,39.88,1,38.5v0C1,37.13,2.12,36,3.5,36h25c1.38,0,2.5,1.13,2.5,2.5v0
		C31,39.88,29.88,41,28.5,41z"/>
</g>
</svg>
